<svg width="119" height="75" viewBox="0 0 119 75" fill="none" xmlns="http://www.w3.org/2000/svg">
<path d="M37.3673 15.6564C37.338 16.102 37.1096 16.3108 36.6822 16.2828C36.382 16.263 36.0707 15.9617 35.7482 15.3788C35.5116 14.9476 35.136 14.0963 34.6212 12.8248C32.8858 12.6834 30.9479 12.1496 28.8074 11.2235C26.9414 12.9323 25.6923 13.766 25.0602 13.7245C24.8965 13.7137 24.7572 13.6452 24.6421 13.5189C24.5274 13.3881 24.4756 13.2385 24.4866 13.0702C24.4989 12.8838 24.6651 12.6823 24.9853 12.4659C25.3013 12.2446 25.6171 12.0256 25.9328 11.8088C26.4735 11.4333 26.9915 11.022 27.4867 10.575C26.7249 10.2144 26.3547 9.87037 26.3762 9.54295C26.3884 9.3565 26.4603 9.20138 26.5917 9.07756C26.7235 8.9492 26.8758 8.8907 27.0486 8.90205C27.1895 8.91131 27.3923 8.98857 27.6567 9.13382C28.1244 9.38376 28.4026 9.52991 28.4911 9.57226C30.4818 7.28702 31.6271 5.59935 31.9271 4.50924C32.0155 4.13598 32.1064 3.7606 32.1997 3.38309C32.3092 3.10712 32.5322 2.98018 32.8687 3.00229C33.1461 3.02051 33.3249 3.14872 33.4052 3.38691C33.4508 3.52692 33.4827 3.73682 33.5008 4.01661C33.5193 4.36036 33.5423 4.60164 33.5697 4.74045C33.8861 6.52871 34.5776 8.79603 35.644 11.5424C35.8535 11.5516 36.0566 11.5535 36.2533 11.5482C36.4361 11.5465 36.5275 11.5456 36.5275 11.5456C37.0323 11.5788 37.2697 11.8227 37.2399 12.2775C37.2091 12.7459 36.9322 12.9629 36.4093 12.9286L36.2114 12.9156C36.3649 13.291 36.6353 13.8682 37.0225 14.6473C37.2643 15.1381 37.3792 15.4745 37.3673 15.6564ZM34.0692 11.4253C33.4413 9.79009 32.9173 8.06813 32.4972 6.25936C31.7458 7.68518 30.8425 8.99141 29.7872 10.1781C31.1674 10.7894 32.5948 11.2051 34.0692 11.4253ZM40.4232 14.9186C40.4029 15.2278 40.3685 15.4379 40.3201 15.5489C40.2297 15.7439 40.0526 15.8328 39.7888 15.8155C39.3568 15.7871 39.1252 15.4202 39.0939 14.7148C39.0396 13.5238 39.08 11.9006 39.2151 9.84509C39.3659 7.54861 39.4905 6.1387 39.5888 5.61537C39.6995 5.04262 39.9481 4.76894 40.3346 4.79433C40.7894 4.8242 40.9987 5.11426 40.9626 5.66451C40.9536 5.80093 40.8929 6.34271 40.7804 7.28985C40.6683 8.23245 40.5859 9.10392 40.5333 9.90428C40.4873 10.6046 40.4641 11.5142 40.4637 12.6331C40.4636 13.7475 40.4501 14.5093 40.4232 14.9186ZM44.1749 15.165C44.1546 15.4743 44.1202 15.6844 44.0718 15.7954C43.9814 15.9904 43.8043 16.0792 43.5405 16.0619C43.1085 16.0335 42.8768 15.6666 42.8455 14.9612C42.7913 13.7702 42.8317 12.147 42.9667 10.0915C43.1176 7.79504 43.2422 6.38514 43.3405 5.86181C43.4512 5.28906 43.6998 5.01538 44.0863 5.04077C44.5411 5.07064 44.7504 5.3607 44.7142 5.91094C44.7053 6.04737 44.6446 6.58915 44.5321 7.53629C44.42 8.47888 44.3376 9.35036 44.285 10.1507C44.239 10.851 44.2158 11.7606 44.2154 12.8796C44.2153 13.9939 44.2018 14.7557 44.1749 15.165Z" fill="white"/>
<path d="M93.7839 44.3102C93.5615 45.5945 93.26 46.6014 92.8793 47.331C92.5182 48.027 92.1604 48.3443 91.8056 48.2829C91.6035 48.2479 91.4438 48.1555 91.3263 48.0057C91.2081 47.8603 91.1626 47.7091 91.1899 47.5519C91.1899 47.5519 91.3634 47.1772 91.7105 46.428C92.0584 45.6742 92.3027 44.8909 92.4435 44.0781C92.6542 42.8612 92.6682 41.9525 92.4854 41.3519C92.2968 40.7319 91.8791 40.3659 91.2325 40.2539C90.8912 40.1948 90.5288 40.2176 90.1453 40.3224C89.7618 40.4271 89.4529 40.5817 89.2186 40.7863C88.9285 41.0459 88.7306 41.4811 88.6248 42.0918L88.5502 42.5229C88.3519 43.668 88.2021 44.7868 88.1008 45.8792C88.0048 46.968 87.963 47.4765 87.9755 47.4046C87.8985 47.8492 87.6534 48.0357 87.2403 47.9642C87.0023 47.923 86.8468 47.8197 86.7736 47.6544C86.7101 47.5139 86.6822 47.2478 86.6899 46.856C86.7184 45.7832 86.8831 44.378 87.184 42.6402C87.4476 41.1179 87.9176 39.4047 88.5942 37.5007C88.7444 37.0874 88.8645 36.8214 88.9544 36.7028C89.0903 36.5321 89.275 36.467 89.5085 36.5074C89.6792 36.5369 89.812 36.6247 89.907 36.7706C90.0019 36.9166 90.0323 37.0884 89.9981 37.2859C89.9997 37.277 89.7545 38.0115 89.2627 39.4897C89.9511 39.04 90.7196 38.8886 91.5683 39.0355C93.5935 39.3862 94.3321 41.1444 93.7839 44.3102ZM102.473 43.8514C102.392 44.3184 102.171 44.6362 101.808 44.8047C101.648 44.8786 101.17 44.9277 100.375 44.9519C99.3187 44.9865 98.4315 44.9415 97.713 44.8171C97.3852 44.7604 96.9939 44.6695 96.5392 44.5445C96.2461 46.2374 96.7439 47.1954 98.0327 47.4186C98.3874 47.48 98.726 47.4346 99.0483 47.2823C99.2091 47.2084 99.5089 47.0128 99.9477 46.6957C100.107 46.5798 100.26 46.5347 100.408 46.5603C100.597 46.593 100.746 46.6928 100.856 46.8599C100.971 47.0232 101.011 47.2081 100.975 47.4147C100.945 47.5853 100.853 47.7312 100.698 47.8523C99.7794 48.5628 98.8015 48.8282 97.7642 48.6486C95.6177 48.277 94.7595 46.8495 95.1895 44.3663C95.4111 43.0865 95.9436 42.0409 96.7871 41.2296C97.7467 40.3088 98.799 39.9476 99.9441 40.1459C100.838 40.3006 101.522 40.7267 101.998 41.4243C102.474 42.1218 102.632 42.9309 102.473 43.8514ZM101.119 43.7001C101.2 43.0713 101.121 42.549 100.883 42.1331C100.65 41.7181 100.309 41.4717 99.8598 41.3939C99.276 41.2929 98.7257 41.4126 98.2088 41.7533C97.6777 42.0961 97.233 42.6342 96.8748 43.3677C97.1874 43.4588 97.5233 43.5355 97.8825 43.5977C98.7537 43.7485 99.8324 43.7827 101.119 43.7001ZM108.897 43.9717C108.868 44.1423 108.791 44.2771 108.668 44.376C108.544 44.4748 108.411 44.5118 108.267 44.4869C108.159 44.4683 108.013 44.3621 107.829 44.1684C107.646 43.9747 107.468 43.863 107.298 43.8335C106.871 43.7596 106.493 43.8884 106.162 44.2197C105.833 44.5465 105.613 45.0288 105.503 45.6664L105.35 46.5488C105.18 47.5322 104.941 48.2957 104.634 48.8392C104.347 49.3491 104.051 49.5776 103.745 49.5247C103.337 49.454 103.167 49.2165 103.237 48.8124C103.251 48.7315 103.366 48.4461 103.58 47.9559C103.795 47.4613 103.942 46.9872 104.02 46.5337C104.238 45.2763 104.233 44.2394 104.004 43.4228C103.999 43.3988 103.915 43.1506 103.751 42.6783C103.668 42.4373 103.638 42.2517 103.661 42.1214C103.685 41.9777 103.778 41.8551 103.939 41.7534C104.1 41.6518 104.262 41.615 104.423 41.643C104.899 41.7254 105.193 42.3776 105.306 43.5995C105.928 42.7823 106.686 42.4511 107.58 42.6058C108.029 42.6835 108.374 42.852 108.616 43.1113C108.859 43.3661 108.952 43.6529 108.897 43.9717ZM116.362 46.2563C116.281 46.7233 116.06 47.0411 115.697 47.2097C115.537 47.2836 115.059 47.3326 114.264 47.3568C113.208 47.3914 112.321 47.3465 111.602 47.222C111.274 47.1653 110.883 47.0744 110.428 46.9494C110.135 48.6423 110.633 49.6004 111.922 49.8235C112.276 49.8849 112.615 49.8395 112.937 49.6872C113.098 49.6133 113.398 49.4177 113.837 49.1006C113.996 48.9847 114.149 48.9396 114.297 48.9653C114.486 48.9979 114.635 49.0978 114.745 49.2648C114.86 49.4281 114.9 49.613 114.864 49.8196C114.834 49.9902 114.742 50.1361 114.587 50.2573C113.668 50.9677 112.69 51.2332 111.653 51.0536C109.507 50.6819 108.649 49.2544 109.078 46.7712C109.3 45.4914 109.833 44.4459 110.676 43.6345C111.636 42.7138 112.688 42.3525 113.833 42.5508C114.727 42.7055 115.411 43.1317 115.887 43.8292C116.363 44.5267 116.521 45.3358 116.362 46.2563ZM115.008 46.1051C115.089 45.4762 115.01 44.9539 114.772 44.5381C114.539 44.123 114.198 43.8766 113.749 43.7989C113.165 43.6978 112.615 43.8176 112.098 44.1582C111.567 44.501 111.122 45.0391 110.764 45.7726C111.076 45.8638 111.412 45.9404 111.772 46.0026C112.643 46.1535 113.721 46.1876 115.008 46.1051Z" fill="white"/>
<path d="M56.9556 13.313C56.9204 13.4825 56.8393 13.6146 56.7126 13.7093C56.5858 13.8039 56.4511 13.8364 56.3083 13.8067C56.2012 13.7844 56.0591 13.6734 55.8819 13.4736C55.7046 13.2738 55.5313 13.1563 55.3617 13.121C54.9378 13.0328 54.5553 13.1487 54.2141 13.4687C53.8738 13.7843 53.6377 14.2589 53.5059 14.8924L53.3235 15.7692C53.1202 16.7463 52.8561 17.5013 52.5311 18.0342C52.227 18.5341 51.9232 18.7525 51.6198 18.6894C51.2137 18.6049 51.0525 18.3619 51.1361 17.9604C51.1528 17.8801 51.2765 17.5986 51.5072 17.1159C51.7389 16.6288 51.9016 16.1599 51.9954 15.7093C52.2553 14.46 52.2848 13.4235 52.0838 12.5996C52.0795 12.5755 52.0037 12.3246 51.8563 11.8471C51.7813 11.6034 51.7573 11.4169 51.7842 11.2875C51.8139 11.1447 51.9109 11.0252 52.0752 10.9291C52.2395 10.8329 52.402 10.8015 52.5626 10.835C53.0356 10.9334 53.3075 11.5951 53.3785 12.8201C54.0282 12.0243 54.7969 11.7187 55.6848 11.9035C56.131 11.9963 56.4706 12.1763 56.7036 12.4436C56.9375 12.7064 57.0215 12.9962 56.9556 13.313ZM64.3393 15.8476C64.2427 16.3116 64.0106 16.6217 63.643 16.778C63.4798 16.8464 63.0005 16.8794 62.205 16.8768C61.1486 16.8758 60.2634 16.801 59.5495 16.6525C59.2238 16.5847 58.8358 16.4808 58.3855 16.3405C58.0356 18.0226 58.5009 18.9969 59.7814 19.2633C60.1339 19.3366 60.4738 19.3026 60.8011 19.1612C60.9643 19.0927 61.2705 18.9074 61.7197 18.6052C61.8824 18.4947 62.0373 18.4548 62.1845 18.4855C62.3719 18.5244 62.5177 18.6293 62.6219 18.7999C62.7314 18.967 62.7648 19.1531 62.7221 19.3584C62.6868 19.5279 62.5897 19.6706 62.4306 19.7865C61.4886 20.4656 60.5023 20.698 59.4717 20.4836C57.3389 20.0399 56.5292 18.5843 57.0426 16.117C57.3071 14.8454 57.8746 13.8183 58.7449 13.0358C59.7349 12.1479 60.7988 11.8223 61.9366 12.059C62.8244 12.2437 63.4944 12.6927 63.9466 13.4058C64.3987 14.119 64.5296 14.9329 64.3393 15.8476ZM62.9907 15.6508C63.093 15.025 63.0322 14.5004 62.8085 14.0768C62.5892 13.6541 62.2565 13.3964 61.8103 13.3035C61.2303 13.1829 60.6762 13.284 60.1482 13.6071C59.6058 13.9318 59.1433 14.4547 58.7605 15.1757C59.0699 15.2773 59.4031 15.3652 59.76 15.4395C60.6256 15.6196 61.7025 15.69 62.9907 15.6508ZM70.9024 15.614C70.8095 16.0602 70.5378 16.2364 70.0872 16.1427C69.931 16.1102 69.8199 16.0289 69.7539 15.8988C69.7128 15.7832 69.6699 15.6648 69.6252 15.5438C69.4229 15.1293 69.0919 14.8743 68.6323 14.7787C67.8426 14.6144 67.3545 14.9806 67.1679 15.8775C67.1029 16.1898 67.1186 16.4723 67.215 16.7251C67.2955 16.942 67.4669 17.2035 67.7291 17.5094C68.3217 18.1959 68.6837 18.6599 68.815 18.9013C69.0936 19.3969 69.1763 19.9168 69.063 20.4611C68.9145 21.175 68.5614 21.709 68.0036 22.0631C67.4468 22.4127 66.7958 22.51 66.0507 22.355C65.3412 22.2074 64.7975 21.9011 64.4195 21.4361C64.052 20.9873 63.9249 20.4907 64.0381 19.9464C64.1523 19.3976 64.4459 19.1724 64.9188 19.2708C65.3159 19.3534 65.4576 19.7017 65.3438 20.3158C65.5852 20.7663 65.9067 21.0333 66.3083 21.1169C66.6429 21.1865 66.9359 21.1427 67.1874 20.9856C67.4443 20.8249 67.6043 20.5929 67.6674 20.2895C67.7249 20.0128 67.6498 19.7249 67.4421 19.4257C67.4395 19.4158 67.1659 19.0866 66.6212 18.4379C65.8685 17.5366 65.5919 16.6062 65.7914 15.647C65.9539 14.8661 66.3239 14.2845 66.9016 13.9019C67.4837 13.5203 68.1629 13.4103 68.9393 13.5718C69.5773 13.7045 70.0891 13.9855 70.4746 14.4148C70.8414 14.8217 70.984 15.2214 70.9024 15.614ZM78.2466 18.7409C78.15 19.2049 77.9179 19.5151 77.5503 19.6713C77.3871 19.7398 76.9078 19.7727 76.1123 19.7702C75.0559 19.7692 74.1707 19.6944 73.4568 19.5459C73.1311 19.4781 72.7431 19.3741 72.2928 19.2339C71.9429 20.916 72.4082 21.8902 73.6887 22.1566C74.0412 22.2299 74.3811 22.1959 74.7084 22.0546C74.8716 21.9861 75.1778 21.8008 75.627 21.4986C75.7897 21.3881 75.9446 21.3482 76.0918 21.3788C76.2792 21.4178 76.425 21.5226 76.5291 21.6932C76.6387 21.8603 76.6721 22.0465 76.6294 22.2517C76.5941 22.4213 76.4969 22.564 76.3379 22.6798C75.3959 23.359 74.4096 23.5913 73.379 23.3769C71.2462 22.9332 70.4365 21.4777 70.9499 19.0103C71.2144 17.7387 71.7819 16.7117 72.6522 15.9292C73.6422 15.0413 74.7061 14.7157 75.8438 14.9524C76.7317 15.1371 77.4017 15.586 77.8538 16.2992C78.306 17.0124 78.4369 17.8263 78.2466 18.7409ZM76.898 18.5441C77.0003 17.9184 76.9395 17.3937 76.7158 16.9701C76.4965 16.5475 76.1638 16.2897 75.7176 16.1969C75.1376 16.0762 74.5835 16.1774 74.0555 16.5004C73.5131 16.8252 73.0506 17.348 72.6678 18.069C72.9772 18.1706 73.3103 18.2586 73.6673 18.3328C74.5329 18.5129 75.6098 18.5834 76.898 18.5441ZM84.8147 21.839C84.5604 23.0615 84.116 24.3027 83.4815 25.5625C83.1638 26.1946 82.8287 26.474 82.4762 26.4007C82.1148 26.3255 81.9768 26.0827 82.0622 25.6722C82.0817 25.5785 82.1006 25.5103 82.1188 25.4675C81.6126 25.6182 81.1164 25.643 80.63 25.5418C79.7689 25.3627 79.1458 24.9793 78.7606 24.3918C78.3799 23.8052 78.2806 23.0747 78.4625 22.2002C78.6472 21.3123 79.0544 20.6639 79.6841 20.2549C80.3148 19.8415 81.0629 19.7248 81.9285 19.9049C82.6825 20.0618 83.2659 20.4462 83.6785 21.058C83.9604 19.278 83.4901 18.2608 82.2676 18.0065C81.9954 17.9498 81.686 17.9716 81.3393 18.0717C80.998 18.1683 80.7806 18.2068 80.6869 18.1873C80.5352 18.1557 80.4121 18.065 80.3176 17.915C80.2231 17.765 80.1926 17.6097 80.226 17.449C80.2817 17.1813 80.5273 16.9741 80.9628 16.8273C81.4288 16.6682 81.9496 16.6486 82.5252 16.7683C84.6623 17.2129 85.4255 18.9032 84.8147 21.839ZM83.1289 23.1291C83.3647 21.9958 82.9494 21.3183 81.8831 21.0964C80.7141 20.8532 80.0126 21.2938 79.7787 22.4182C79.5429 23.5515 80.0051 24.2388 81.1651 24.4801C81.6693 24.585 82.0948 24.5199 82.4416 24.2849C82.7894 24.0453 83.0185 23.6601 83.1289 23.1291ZM92.199 20.6452C92.1638 20.8148 92.0828 20.9469 91.956 21.0415C91.8292 21.1362 91.6945 21.1686 91.5517 21.1389C91.4446 21.1167 91.3025 21.0056 91.1253 20.8058C90.948 20.606 90.7747 20.4885 90.6051 20.4532C90.1812 20.3651 89.7987 20.481 89.4575 20.801C89.1172 21.1166 88.8812 21.5911 88.7493 22.2247L88.5669 23.1014C88.3637 24.0785 88.0995 24.8335 87.7745 25.3664C87.4704 25.8664 87.1666 26.0848 86.8632 26.0217C86.4572 25.9372 86.2959 25.6942 86.3795 25.2926C86.3962 25.2123 86.5199 24.9308 86.7506 24.4482C86.9823 23.9611 87.145 23.4922 87.2388 23.0416C87.4987 21.7923 87.5282 20.7557 87.3272 19.9319C87.3229 19.9077 87.2471 19.6569 87.0997 19.1793C87.0247 18.9356 87.0007 18.7491 87.0276 18.6197C87.0573 18.4769 87.1543 18.3575 87.3186 18.2613C87.4829 18.1652 87.6454 18.1338 87.806 18.1672C88.279 18.2656 88.5509 18.9273 88.6219 20.1524C89.2716 19.3565 90.0403 19.051 90.9282 19.2357C91.3744 19.3285 91.714 19.5086 91.947 19.7758C92.1809 20.0386 92.2649 20.3284 92.199 20.6452ZM99.5239 26.2817C99.4273 26.7457 98.8327 27.2434 97.74 27.7748C96.9693 28.1452 96.0441 28.218 94.9644 27.9934C93.8936 27.7706 93.1236 27.2427 92.6546 26.4096C92.1749 25.5604 92.0655 24.5089 92.3264 23.2551C92.6633 21.6355 93.2869 20.4503 94.1973 19.6994C95.1085 18.944 96.1954 18.6977 97.4581 18.9604C98.3951 19.1553 99.1189 19.5247 99.6295 20.0685C100.114 20.579 100.3 21.1086 100.186 21.6574C100.092 22.1081 99.8353 22.2898 99.4159 22.2025C99.2196 22.1617 99.0912 22.0628 99.0308 21.9059C98.9913 21.6929 98.9197 21.422 98.8158 21.0932C98.5733 20.6703 98.0349 20.3721 97.2005 20.1985C96.3305 20.0175 95.5885 20.2053 94.9747 20.7618C94.3653 21.3193 93.9339 22.2071 93.6805 23.4251C93.2795 25.3526 93.8464 26.476 95.3812 26.7953C96.2691 26.9801 97.0931 26.8233 97.853 26.3251C97.8584 26.3216 98.0385 26.1496 98.3933 25.8091C98.604 25.6016 98.812 25.5192 99.0173 25.5619C99.1779 25.5953 99.3099 25.6879 99.4133 25.8398C99.5176 25.9871 99.5545 26.1345 99.5239 26.2817ZM107.775 26.8602C107.51 28.1363 107.175 29.1325 106.769 29.8489C106.385 30.5324 106.017 30.8374 105.664 30.7641C105.464 30.7223 105.307 30.6246 105.195 30.4709C105.081 30.3216 105.041 30.1689 105.074 30.0128C105.074 30.0128 105.26 29.6442 105.632 28.907C106.005 28.1654 106.275 27.3907 106.443 26.5832C106.695 25.374 106.74 24.4663 106.577 23.8599C106.409 23.2339 106.004 22.854 105.362 22.7204C105.023 22.6498 104.66 22.6604 104.273 22.7522C103.886 22.8439 103.572 22.9881 103.331 23.1846C103.033 23.4344 102.82 23.8626 102.694 24.4694L102.605 24.8978C102.368 26.0355 102.181 27.1486 102.043 28.2371C101.91 29.322 101.851 29.8288 101.866 29.7574C101.774 30.1991 101.523 30.3773 101.112 30.2919C100.876 30.2427 100.724 30.1342 100.656 29.9666C100.598 29.824 100.579 29.5571 100.6 29.1658C100.664 28.0946 100.876 26.6957 101.235 24.969C101.55 23.4564 102.077 21.7601 102.818 19.8799C102.982 19.4718 103.111 19.2101 103.205 19.0946C103.346 18.9285 103.533 18.8697 103.765 18.9179C103.935 18.9532 104.064 19.0454 104.154 19.1944C104.244 19.3435 104.269 19.5162 104.228 19.7125C104.23 19.7036 103.96 20.4295 103.419 21.8902C104.122 21.464 104.895 21.3385 105.739 21.514C107.751 21.9326 108.43 23.7147 107.775 26.8602Z" fill="white"/>
<path d="M58.1076 29.0986C58.0614 29.2513 57.9602 29.373 57.8042 29.4639C57.6494 29.5503 57.4979 29.5711 57.3496 29.5262C57.3147 29.5156 57.1074 29.3433 56.7276 29.0092C56.3479 28.6752 55.9224 28.4368 55.4514 28.2941C54.7143 28.0709 54.1056 28.2175 53.6254 28.7339C53.3986 28.9795 53.1828 29.3856 52.9779 29.9521C52.7755 30.5574 52.5731 31.1627 52.3707 31.7681C53.528 32.2234 54.2819 32.5564 54.6323 32.7673C55.0986 33.0514 55.2862 33.3439 55.195 33.6449C55.1435 33.815 55.0548 33.9429 54.9288 34.0285C54.8086 34.1111 54.6896 34.1346 54.5718 34.099C54.502 34.0778 54.2149 33.9409 53.7106 33.6881C53.1229 33.3959 52.5544 33.1427 52.0049 32.9287C51.3451 34.8716 50.9109 36.0615 50.7024 36.4983C50.3468 37.2477 49.9728 37.563 49.5802 37.4441C49.1615 37.3173 49.0255 37.0118 49.1721 36.5277C49.1721 36.5277 49.3533 36.0945 49.7157 35.2281C50.093 34.3281 50.4331 33.4097 50.7359 32.4729C50.2064 32.303 49.8665 32.1596 49.7162 32.0426C49.5233 31.8937 49.4671 31.6862 49.5476 31.4202C49.6613 31.0451 49.9187 30.9183 50.32 31.0398L50.3461 31.0477L51.1037 31.3058C51.2968 30.7309 51.4871 30.1577 51.6746 29.5859C51.8659 29.0486 52.0474 28.6536 52.2192 28.4009C53.1167 27.0728 54.2938 26.6293 55.7506 27.0705C56.5575 27.3149 57.1858 27.6457 57.6356 28.0629C58.0441 28.4437 58.2014 28.789 58.1076 29.0986ZM62.5832 32.7398C62.533 32.9055 62.4406 33.0299 62.3059 33.1129C62.1712 33.196 62.0341 33.2163 61.8945 33.1741C61.7899 33.1424 61.6581 33.0191 61.4994 32.8044C61.3406 32.5896 61.1784 32.4572 61.0126 32.407C60.5983 32.2815 60.2069 32.3629 59.8386 32.6514C59.4717 32.9355 59.1944 33.3872 59.0068 34.0065L58.7472 34.8636C58.4579 35.8188 58.1277 36.5473 57.7567 37.0492C57.4093 37.5202 57.0873 37.7107 56.7907 37.6209C56.3938 37.5007 56.2548 37.2443 56.3737 36.8518C56.3975 36.7732 56.5457 36.5039 56.8184 36.0436C57.0925 35.579 57.2962 35.1265 57.4296 34.6859C57.7995 33.4647 57.921 32.4348 57.794 31.5964C57.7918 31.572 57.7386 31.3154 57.6343 30.8266C57.5812 30.5773 57.5739 30.3893 57.6122 30.2628C57.6544 30.1233 57.7617 30.0129 57.9339 29.9317C58.1061 29.8505 58.2707 29.8337 58.4277 29.8813C58.89 30.0213 59.1021 30.7046 59.064 31.9311C59.7818 31.1961 60.5747 30.9601 61.4426 31.223C61.8788 31.3551 62.2011 31.5646 62.4094 31.8515C62.619 32.134 62.677 32.4301 62.5832 32.7398ZM70.1019 36.9455C69.7135 38.2278 69.0287 39.137 68.0473 39.6731C67.0672 40.2048 65.9513 40.2811 64.6995 39.902C63.6614 39.5876 62.955 38.9879 62.5802 38.103C62.2067 37.2137 62.2108 36.1388 62.5926 34.8783C62.9942 33.5524 63.6614 32.6307 64.5943 32.1133C65.5101 31.6049 66.5874 31.5384 67.8261 31.9135C68.8642 32.2279 69.5935 32.8464 70.014 33.769C70.4346 34.6916 70.4639 35.7504 70.1019 36.9455ZM68.796 36.5643C69.0615 35.6876 69.0552 34.9381 68.7771 34.3158C68.5046 33.6904 67.9998 33.2661 67.2627 33.0428C65.6183 32.5448 64.4969 33.2837 63.8985 35.2595C63.6224 36.1711 63.5886 36.9275 63.797 37.5287C64.0067 38.1255 64.4452 38.525 65.1125 38.7271C65.9761 38.9887 66.7343 38.9302 67.387 38.5517C68.0397 38.1732 68.5094 37.5108 68.796 36.5643ZM80.4822 40.3109C79.4703 43.6519 78.5675 45.2022 77.7737 44.9617C77.4683 44.8693 77.3738 44.6311 77.4901 44.2473C77.4914 44.2429 77.7161 43.7682 78.1643 42.823C78.6138 41.8734 78.9878 40.9058 79.2864 39.9201C79.7844 38.2758 79.6452 37.336 78.8688 37.1009C78.1884 36.8948 77.6159 37.1737 77.1511 37.9377C76.7969 38.5256 76.3371 39.753 75.7717 41.6198C75.6845 41.9076 75.6099 42.2326 75.5478 42.5948C75.4871 42.9526 75.4474 43.162 75.4289 43.223C75.2982 43.6548 75.0278 43.8087 74.6178 43.6845C74.1249 43.5352 74.1169 42.6733 74.5938 41.0987C74.7946 40.4358 75.028 39.7517 75.2939 39.0466C75.5656 38.3384 75.7093 37.9582 75.7251 37.9058C75.9207 37.2603 75.6782 36.8345 74.9978 36.6284C74.361 36.4355 73.8121 36.5812 73.3512 37.0654C72.9043 37.5348 72.4992 38.3692 72.1359 39.5686C71.9021 40.3406 71.7059 41.0669 71.5474 41.7475C71.3903 42.4236 71.3275 42.7094 71.3592 42.6047C71.309 42.7704 71.2064 42.8893 71.0512 42.9614C70.9004 43.0348 70.7312 43.0431 70.5437 42.9863C70.1555 42.8687 70.0279 42.4253 70.1609 41.6561C70.1951 41.4331 70.3476 40.8746 70.6184 39.9804C71.1851 38.1093 71.8787 36.3694 72.6992 34.7609C72.9686 34.233 73.1813 33.8926 73.3371 33.7398C73.5222 33.553 73.7456 33.4993 74.0073 33.5785C74.4173 33.7027 74.5562 33.9829 74.4241 34.419C74.4241 34.419 74.1767 34.8822 73.6819 35.8085C74.2168 35.3943 74.8333 35.2929 75.5311 35.5043C76.0894 35.6734 76.4577 36.0373 76.6361 36.5961C77.4661 35.8522 78.3849 35.6329 79.3924 35.9381C80.8667 36.3846 81.2299 37.8422 80.4822 40.3109Z" fill="white"/>
<path d="M18.635 20.4672C18.6107 20.5971 18.5467 20.8031 18.443 21.085C18.3393 21.367 18.2736 21.5819 18.2459 21.7297L18.207 21.938C18.1157 22.4263 18.0236 22.7452 17.9307 22.8948C17.7984 23.1065 17.5867 23.1851 17.2955 23.1307C16.973 23.0703 16.7946 22.8214 16.7606 22.3839C16.74 22.1714 16.7701 21.8247 16.8508 21.3437C16.3183 20.7944 15.7161 20.4569 15.0441 20.3312C14.1841 20.1704 13.4243 20.3158 12.765 20.7674C12.1056 21.219 11.6951 21.8771 11.5335 22.7417C11.3952 23.4808 11.4721 24.0492 11.764 24.4469C11.9677 24.7214 12.457 25.0795 13.2322 25.5212C13.9325 25.9164 14.4072 26.2045 14.6561 26.3855C15.081 26.6922 15.3889 27.0163 15.58 27.3581C15.8653 27.8658 15.94 28.4825 15.8043 29.2082C15.6636 29.9607 15.2677 30.5033 14.6167 30.836C13.9657 31.1686 13.1452 31.2423 12.1552 31.0572C11.4116 30.9182 10.8502 30.6231 10.4709 30.172L10.2024 31.5335C10.1133 31.9851 9.85149 32.1703 9.41696 32.089C8.96452 32.0044 8.79442 31.662 8.90667 31.0617L9.08886 30.0874C9.33095 28.7928 9.52818 27.9488 9.68057 27.5554C9.88579 27.0281 10.1609 26.7967 10.5058 26.8612C10.7791 26.9123 10.9422 27.0564 10.9952 27.2935C11.0239 27.438 11.0353 27.6372 11.0295 27.8911C11.0132 28.2265 11.0088 28.4482 11.0164 28.5562C11.05 29.1699 11.4476 29.5479 12.2092 29.6903C13.5306 29.9374 14.2651 29.6668 14.4125 28.8784C14.4854 28.4886 14.4034 28.1464 14.1664 27.8518C13.9711 27.6066 13.598 27.3212 13.0469 26.9956L11.9123 26.3315C11.082 25.8377 10.5317 25.3222 10.2612 24.7848C9.98073 24.227 9.92467 23.4979 10.093 22.5975C10.3376 21.2894 10.9461 20.3044 11.9183 19.6424C12.8914 18.9759 14.0252 18.7637 15.3198 19.0058C16.0634 19.1449 16.7282 19.4825 17.3141 20.0186C17.523 19.5708 17.8044 19.38 18.1583 19.4462C18.5884 19.5266 18.7473 19.867 18.635 20.4672ZM24.5105 25.3074C24.4812 25.4642 24.4068 25.5894 24.2873 25.6829C24.1686 25.772 24.0421 25.804 23.9077 25.7789C23.8405 25.7663 23.5993 25.6308 23.184 25.3723C22.7732 25.1147 22.355 24.9461 21.9294 24.8665C21.795 24.8413 21.6522 24.8239 21.5011 24.8142C21.1988 25.5134 20.9907 26.1676 20.8767 26.7768C20.7301 27.5608 20.7496 28.188 20.9352 28.6585C21.1207 29.129 21.4487 29.4082 21.9191 29.4962C22.0624 29.523 22.2589 29.5134 22.5086 29.4674C22.7636 29.4177 22.9427 29.4025 23.0457 29.4217C23.4041 29.4888 23.5439 29.7328 23.4651 30.1539C23.414 30.4271 23.2247 30.6212 22.8973 30.7362C22.5698 30.8511 22.1507 30.8608 21.64 30.7654C19.7406 30.4102 19.0276 28.9671 19.5009 26.4361C19.6006 25.903 19.7753 25.3283 20.025 24.712C19.8962 24.7065 19.6155 24.7073 19.183 24.7145C18.8997 24.7172 18.6931 24.7064 18.5632 24.6821C18.0838 24.5925 17.8785 24.364 17.9472 23.9966C18.041 23.4949 18.9287 23.3225 20.6102 23.4793C21.1525 22.4633 21.67 22.0014 22.1628 22.0936C22.3151 22.1221 22.4345 22.2023 22.5211 22.3344C22.6085 22.4621 22.6376 22.6043 22.6082 22.761C22.5865 22.8775 22.5252 23.0191 22.4245 23.1857C22.3247 23.3478 22.2244 23.5122 22.1237 23.6788C23.8464 24.0612 24.642 24.6041 24.5105 25.3074ZM30.8405 28.7582C30.611 29.9857 30.1918 31.2356 29.583 32.508C29.2781 33.1464 28.9488 33.4325 28.5949 33.3664C28.232 33.2985 28.0891 33.0585 28.1662 32.6464C28.1838 32.5523 28.2012 32.4837 28.2186 32.4406C27.7156 32.6015 27.2199 32.6364 26.7317 32.545C25.8671 32.3834 25.2363 32.0127 24.8393 31.4332C24.4469 30.8544 24.3327 30.126 24.4969 29.248C24.6636 28.3566 25.0576 27.7 25.6789 27.2784C26.301 26.8523 27.0466 26.7205 27.9156 26.883C28.6727 27.0246 29.2637 27.397 29.6887 28.0004C29.9345 26.215 29.4436 25.2076 28.2162 24.9781C27.9429 24.927 27.634 24.955 27.2895 25.0621C26.9502 25.1655 26.7336 25.2085 26.6395 25.1909C26.4872 25.1624 26.3623 25.0741 26.2648 24.9261C26.1673 24.778 26.1336 24.6234 26.1638 24.4621C26.214 24.1933 26.4554 23.9812 26.8878 23.8256C27.3505 23.6571 27.8708 23.6269 28.4487 23.735C30.5944 24.1362 31.3917 25.8106 30.8405 28.7582ZM29.1812 30.0822C29.3939 28.9444 28.965 28.2754 27.8944 28.0752C26.7207 27.8557 26.0283 28.3104 25.8172 29.4393C25.6045 30.5771 26.0804 31.2549 27.2451 31.4727C27.7513 31.5674 28.1754 31.4937 28.5174 31.2516C28.8602 31.0051 29.0815 30.6153 29.1812 30.0822ZM38.1991 27.4151C38.1673 27.5853 38.0889 27.719 37.9641 27.8162C37.8393 27.9134 37.7052 27.9486 37.5619 27.9218C37.4544 27.9017 37.31 27.7936 37.1288 27.5974C36.9476 27.4013 36.7718 27.2873 36.6016 27.2554C36.176 27.1759 35.7959 27.2995 35.4613 27.6264C35.1274 27.9488 34.901 28.428 34.7821 29.0641L34.6175 29.9444C34.434 30.9254 34.1853 31.6856 33.8711 32.2249C33.5772 32.731 33.2779 32.9555 32.9732 32.8985C32.5656 32.8223 32.3995 32.5826 32.4749 32.1794C32.4899 32.0988 32.6079 31.8149 32.8289 31.3276C33.0506 30.8359 33.2038 30.3639 33.2884 29.9114C33.523 28.6571 33.5314 27.6202 33.3138 26.8006C33.309 26.7765 33.2281 26.5272 33.0711 26.0528C32.9912 25.8107 32.9634 25.6247 32.9877 25.4948C33.0145 25.3514 33.1091 25.23 33.2714 25.1305C33.4337 25.0311 33.5955 24.9964 33.7568 25.0266C34.2316 25.1154 34.5169 25.7714 34.6127 26.9948C35.2461 26.186 36.0085 25.8649 36.9 26.0316C37.348 26.1154 37.6911 26.2885 37.9295 26.551C38.1687 26.809 38.2586 27.097 38.1991 27.4151ZM44.7092 29.0845C44.6799 29.2413 44.6055 29.3664 44.486 29.46C44.3673 29.5491 44.2408 29.5811 44.1064 29.5559C44.0392 29.5434 43.798 29.4078 43.3827 29.1494C42.9719 28.8917 42.5537 28.7231 42.1281 28.6435C41.9937 28.6184 41.8509 28.601 41.6998 28.5913C41.3975 29.2905 41.1894 29.9447 41.0755 30.5539C40.9289 31.3378 40.9483 31.9651 41.1339 32.4356C41.3195 32.9061 41.6474 33.1853 42.1178 33.2733C42.2611 33.3001 42.4576 33.2905 42.7073 33.2444C42.9624 33.1947 43.1414 33.1795 43.2444 33.1988C43.6028 33.2658 43.7426 33.5099 43.6639 33.931C43.6128 34.2042 43.4235 34.3983 43.096 34.5133C42.7685 34.6282 42.3494 34.6379 41.8387 34.5424C39.9394 34.1872 39.2263 32.7442 39.6996 30.2132C39.7993 29.6801 39.974 29.1054 40.2237 28.4891C40.0949 28.4836 39.8142 28.4844 39.3817 28.4916C39.0984 28.4943 38.8918 28.4835 38.7619 28.4592C38.2826 28.3695 38.0772 28.141 38.1459 27.7737C38.2398 27.272 39.1274 27.0995 40.8089 27.2563C41.3512 26.2404 41.8687 25.7785 42.3615 25.8706C42.5138 25.8991 42.6333 25.9794 42.7198 26.1115C42.8072 26.2391 42.8363 26.3813 42.807 26.5381C42.7852 26.6546 42.7239 26.7961 42.6232 26.9628C42.5234 27.1249 42.4231 27.2893 42.3224 27.4559C44.0451 27.8383 44.8407 28.3812 44.7092 29.0845Z" fill="white"/>
<path d="M13.2443 63.6786C19.8058 62.0185 25.7649 57.7932 30.6408 52.2986C32.0232 50.7392 33.3209 49.0874 34.5335 47.3472C35.0479 46.6075 34.1036 45.7301 33.5892 46.4698C29.4855 52.3532 24.3164 57.3774 18.343 60.3141C16.651 61.145 14.9042 61.7962 13.1224 62.2464C12.3461 62.4403 12.4608 63.8755 13.2443 63.6786Z" fill="white"/>
<path d="M14.7714 55.8741C13.2639 59.8011 10.5803 63.2343 7.17975 65.6853C10.5038 65.4363 13.8317 65.2746 17.1634 65.1958C18.1939 65.1716 18.2697 66.7725 17.2349 66.7968C12.7855 66.9037 8.33834 67.1591 3.90674 67.5668C3.14924 67.6356 2.71614 66.4529 3.43442 66.093C7.99184 63.8044 11.5282 59.8917 13.3525 55.1288C13.7203 54.1638 15.1396 54.9179 14.7714 55.8741Z" fill="white"/>
</svg>
