<svg width="24" height="24" viewBox="0 0 24 24" fill="none" xmlns="http://www.w3.org/2000/svg">
<path d="M24 21.1651V9.42185C24 5.79016 21.0448 2.83496 17.4131 2.83496H6.58847C2.95599 2.83496 -7.52307e-07 5.79016 -7.52307e-07 9.42185V11.4474C-7.52307e-07 15.0791 2.9552 18.0342 6.58689 18.0342H17.2604L24 21.1651ZM17.4131 4.30346C20.2354 4.30346 22.5315 6.59957 22.5315 9.42185V18.8634L17.584 16.565H6.58689C3.76461 16.565 1.4685 14.2688 1.4685 11.4466V9.42105C1.4685 6.59878 3.7654 4.30267 6.58847 4.30267H17.4131V4.30346ZM16.9289 9.31029C16.1575 9.31029 15.5324 9.93535 15.5324 10.7068C15.5324 11.4782 16.1575 12.1033 16.9289 12.1033C17.7003 12.1033 18.3254 11.4782 18.3254 10.7068C18.3254 9.93535 17.7003 9.31029 16.9289 9.31029ZM7.0719 9.31029C6.30046 9.31029 5.6754 9.93535 5.6754 10.7068C5.6754 11.4782 6.30046 12.1033 7.0719 12.1033C7.84334 12.1033 8.4684 11.4782 8.4684 10.7068C8.4684 9.93535 7.84334 9.31029 7.0719 9.31029ZM12.0012 9.31029C11.2297 9.31029 10.6047 9.93535 10.6047 10.7068C10.6047 11.4782 11.2297 12.1033 12.0012 12.1033C12.7726 12.1033 13.3977 11.4782 13.3977 10.7068C13.3977 9.93535 12.7726 9.31029 12.0012 9.31029Z" fill="#010002" fill-opacity="0.6"/>
</svg>
