<svg width="25" height="24" viewBox="0 0 25 24" fill="none" xmlns="http://www.w3.org/2000/svg">
<path d="M15.0825 11.9986L22.9582 4.85447C23.3031 4.54089 23.4969 4.11558 23.4969 3.67211C23.4969 3.22864 23.3031 2.80333 22.9582 2.48975C22.6133 2.17617 22.1456 2 21.6578 2C21.1701 2 20.7023 2.17617 20.3574 2.48975L12.5 9.65052L4.64259 2.48975C4.2977 2.17617 3.82993 2 3.34218 2C2.85444 2 2.38666 2.17617 2.04177 2.48975C1.69688 2.80333 1.50313 3.22864 1.50313 3.67211C1.50313 4.11558 1.69688 4.54089 2.04177 4.85447L9.9175 11.9986L2.04177 19.1427C1.8701 19.2975 1.73385 19.4817 1.64086 19.6846C1.54787 19.8875 1.5 20.1052 1.5 20.3251C1.5 20.5449 1.54787 20.7626 1.64086 20.9655C1.73385 21.1684 1.8701 21.3526 2.04177 21.5074C2.21204 21.6635 2.41461 21.7874 2.63781 21.8719C2.861 21.9565 3.1004 22 3.34218 22C3.58397 22 3.82337 21.9565 4.04656 21.8719C4.26975 21.7874 4.47233 21.6635 4.64259 21.5074L12.5 14.3466L20.3574 21.5074C20.5277 21.6635 20.7302 21.7874 20.9534 21.8719C21.1766 21.9565 21.416 22 21.6578 22C21.8996 22 22.139 21.9565 22.3622 21.8719C22.5854 21.7874 22.788 21.6635 22.9582 21.5074C23.1299 21.3526 23.2662 21.1684 23.3591 20.9655C23.4521 20.7626 23.5 20.5449 23.5 20.3251C23.5 20.1052 23.4521 19.8875 23.3591 19.6846C23.2662 19.4817 23.1299 19.2975 22.9582 19.1427L15.0825 11.9986Z" fill="white"/>
</svg>
