<svg width="80" height="80" viewBox="0 0 80 80" fill="none" xmlns="http://www.w3.org/2000/svg">
<path d="M40 77.6558C60.797 77.6558 77.6562 60.7965 77.6562 39.9995C77.6562 19.2025 60.797 2.34326 40 2.34326C19.203 2.34326 2.34375 19.2025 2.34375 39.9995C2.34375 60.7965 19.203 77.6558 40 77.6558Z" fill="#FF6BAA"/>
<path d="M77.6562 39.9995C77.6562 19.2025 60.797 2.34326 40 2.34326V77.6558C60.797 77.6558 77.6562 60.7965 77.6562 39.9995Z" fill="#FA4696"/>
<path d="M68.2844 11.7156C60.7292 4.16078 50.6844 0 40 0C29.3156 0 19.2708 4.16078 11.7156 11.7156C4.16078 19.2708 0 29.3156 0 40C0 50.6844 4.16078 60.7292 11.7156 68.2844C19.2708 75.8392 29.3156 80 40 80C50.6844 80 60.7292 75.8392 68.2844 68.2844C75.8392 60.7292 80 50.6844 80 40C80 29.3156 75.8392 19.2708 68.2844 11.7156ZM75.1186 43.7041C66.4156 41.3908 58.3916 40.53 51.2139 41.1405C50.3297 38.4195 49.2884 35.6691 48.0933 32.8991C55.8967 30.5944 63.2788 26.8448 70.1747 21.6736C73.4334 27.0194 75.3125 33.2942 75.3125 40C75.3125 41.2508 75.2461 42.4864 75.1186 43.7041ZM67.473 17.8414C60.2986 23.233 53.0347 26.58 46.0919 28.5331C41.2331 18.5438 35.3936 10.3811 31.7053 5.67406C34.3666 5.03078 37.1437 4.6875 40 4.6875C51.0864 4.6875 60.9941 9.82453 67.473 17.8414ZM26.9281 7.19672C30.5037 11.6037 36.4642 19.6334 41.4614 29.6472C26.4783 32.6516 13.5172 29.5581 7.01609 27.3923C10.5408 18.2019 17.8002 10.8472 26.9281 7.19672ZM4.6875 40C4.6875 37.2047 5.01562 34.4847 5.63234 31.8752C10.7467 33.5809 18.9745 35.6456 28.8386 35.6456C29.4195 35.6456 30.0077 35.6384 30.5997 35.6234C35.0211 35.5127 39.3372 34.9916 43.5403 34.0694C44.633 36.547 45.6456 39.1211 46.5355 41.7705C40.8913 42.818 35.7912 44.8639 31.3405 47.8798C23.28 53.3419 18.867 60.9589 16.5794 66.4036C9.28969 59.93 4.6875 50.4931 4.6875 40ZM20.4306 69.3792C23.4073 61.6075 30.7639 49.2698 47.9109 46.3028C50.3086 55.1647 51.1491 64.6945 48.943 74.1642C46.0856 74.9125 43.0887 75.3125 40 75.3125C32.7669 75.3125 26.0358 73.1252 20.4306 69.3792ZM54.0869 72.3777C55.1856 66.0692 55.1631 59.3914 54.0148 52.4658C53.6489 50.2583 53.1672 48.0187 52.5727 45.7537C58.6838 45.3503 65.87 46.0552 74.3147 48.3411C71.6897 59.1386 64.0889 68.0091 54.0869 72.3777Z" fill="#FA4696"/>
<path d="M40 0V4.6875C51.0864 4.6875 60.9941 9.82453 67.473 17.8414C60.2986 23.233 53.0347 26.58 46.0919 28.5331C44.1513 24.5431 42.0542 20.8459 40.0002 17.5427V26.823C40.4941 27.7453 40.9823 28.687 41.4616 29.6472C40.9722 29.7453 40.4852 29.8366 40.0002 29.9219V34.7455C41.1888 34.5509 42.3692 34.3263 43.5405 34.0694C44.6331 36.547 45.6458 39.1211 46.5356 41.7705C44.2663 42.1916 42.0866 42.777 40 43.5191V48.5561C42.3728 47.5806 45.0005 46.8064 47.9109 46.3028C50.3086 55.1647 51.1491 64.6945 48.943 74.1642C46.0856 74.9125 43.0887 75.3125 40 75.3125V80C50.6844 80 60.7292 75.8392 68.2844 68.2844C75.8392 60.7292 80 50.6844 80 40C80 29.3156 75.8392 19.2708 68.2844 11.7156C60.7292 4.16078 50.6844 0 40 0V0ZM54.0869 72.3777C55.1856 66.0692 55.1631 59.3914 54.0148 52.4658C53.6489 50.2583 53.1672 48.0187 52.5727 45.7537C58.6838 45.3503 65.87 46.0552 74.3147 48.3411C71.6897 59.1386 64.0889 68.0091 54.0869 72.3777ZM75.3125 40C75.3125 41.2508 75.2461 42.4864 75.1186 43.7041C66.4156 41.3908 58.3916 40.53 51.2139 41.1405C50.3297 38.4195 49.2884 35.6691 48.0933 32.8991C55.8967 30.5944 63.2788 26.8448 70.1747 21.6736C73.4334 27.0194 75.3125 33.2942 75.3125 40Z" fill="#F01E64"/>
</svg>
