<svg width="24" height="24" viewBox="0 0 24 24" fill="none" xmlns="http://www.w3.org/2000/svg">
<path d="M17.4884 5.33808L17.5116 5.51626L17.2446 5.57154L17.209 5.95109H17.5289L17.9543 5.91013L18.174 5.64903L17.9405 5.55821L17.8127 5.41113L17.6207 5.10017L17.5289 4.6604L17.1681 4.73394L17.0669 4.88892V5.06365L17.2406 5.1826L17.4884 5.33808Z" fill="black" fill-opacity="0.6"/>
<path d="M17.1809 5.484L17.2002 5.2461L16.9884 5.15479L16.6923 5.22339L16.4727 5.5758V5.80433H16.7288L17.1809 5.484Z" fill="black" fill-opacity="0.6"/>
<path d="M11.0851 6.49441L11.02 6.66223H10.7046V6.82511H10.7796C10.7796 6.82511 10.7841 6.85966 10.7905 6.90506L10.984 6.88878L11.1049 6.81375L11.1365 6.66223L11.2929 6.6489L11.3546 6.52156L11.211 6.49194L11.0851 6.49441Z" fill="black" fill-opacity="0.6"/>
<path d="M10.2721 6.79019L10.2598 6.94961L10.4883 6.93036L10.512 6.77045L10.3748 6.66235L10.2721 6.79019Z" fill="black" fill-opacity="0.6"/>
<path d="M23.997 11.8759C23.9936 11.5249 23.9758 11.1765 23.9427 10.8334C23.8317 9.68983 23.5583 8.5936 23.1486 7.56599C23.118 7.48948 23.0899 7.41199 23.0573 7.33647C22.5114 6.04677 21.7449 4.87256 20.8066 3.85925C20.7449 3.79311 20.6822 3.72796 20.6195 3.66379C20.4423 3.47969 20.2602 3.30003 20.0717 3.12777C17.9384 1.18556 15.1053 0 11.9998 0C8.86803 0 6.01468 1.20679 3.87554 3.17861C3.37703 3.63813 2.91899 4.1396 2.5034 4.67661C0.935815 6.70421 0 9.24413 0 11.9998C0 18.6171 5.3834 24 12.0002 24C16.6546 24 20.6955 21.3347 22.6846 17.4513C23.1101 16.6211 23.4413 15.7361 23.6644 14.8087C23.7211 14.5732 23.77 14.3368 23.8124 14.0974C23.9334 13.4158 23.9995 12.7149 23.9995 11.9998C24 11.9583 23.9975 11.9173 23.997 11.8759ZM21.7384 7.07982L21.808 7.00183C21.8994 7.17902 21.9847 7.35918 22.0662 7.5418L21.9527 7.53736L21.7384 7.56697V7.07982V7.07982ZM20.0045 4.98608L20.0065 4.45006C20.195 4.64995 20.3767 4.85577 20.5504 5.069L20.3342 5.39081L19.5786 5.3839L19.5312 5.22645L20.0045 4.98608ZM5.52901 3.65392V3.63369H5.76938L5.79011 3.55126H6.18349V3.72302L6.07046 3.87406H5.52851L5.52901 3.65392ZM5.91301 4.18945C5.91301 4.18945 6.15338 4.14848 6.17411 4.14848C6.19484 4.14848 6.17411 4.38836 6.17411 4.38836L5.63216 4.42242L5.52901 4.29902L5.91301 4.18945ZM22.503 8.95293H21.6249L21.0899 8.55461L20.5267 8.6094V8.95293H20.3485L20.1561 8.81571L19.1808 8.56843V7.93666L17.9448 8.0329L17.5618 8.23872H17.0712L16.8308 8.21454L16.2351 8.54523V9.16763L15.0175 10.0462L15.1186 10.4213H15.3654L15.3008 10.7787L15.127 10.8423L15.1177 11.7762L16.17 12.9746H16.628L16.6556 12.9015H17.4789L17.7163 12.6819H18.1832L18.4394 12.9385L19.1353 13.0106L19.043 13.936L19.8155 15.2998L19.4088 16.0772L19.4364 16.4434L19.7568 16.7627V17.6433L20.1773 18.2089V18.9404H20.5405C18.5189 21.4226 15.4419 23.0124 11.9993 23.0124C5.92732 23.0129 0.987147 18.0722 0.987147 11.9998C0.987147 10.4712 1.30106 9.01413 1.8662 7.68987V7.34634L2.26007 6.86807C2.39679 6.60993 2.54338 6.35821 2.69985 6.11291L2.71761 6.3128L2.26057 6.86807C2.11891 7.13559 1.98663 7.40903 1.86669 7.68987V8.31671L2.32424 8.53684V9.408L2.76302 10.1568L3.11988 10.2115L3.16578 9.95488L2.74476 9.30534L2.66233 8.67406H2.90912L3.01326 9.3236L3.62184 10.2115L3.46488 10.4983L3.85185 11.0901L4.81283 11.328V11.1725L5.19733 11.2273L5.1608 11.5017L5.46287 11.557L5.9293 11.6844L6.58822 12.4351L7.42976 12.4988L7.51219 13.1853L6.93619 13.5881L6.90904 14.2011L6.82661 14.5762L7.65976 15.6191L7.72343 15.9765C7.72343 15.9765 8.0255 16.0584 8.06252 16.0584C8.09904 16.0584 8.7397 16.5436 8.7397 16.5436V18.4285L8.96823 18.4927L8.81275 19.3624L9.19724 19.8752L9.12617 20.737L9.63406 21.6299L10.2861 22.1994L10.9415 22.2113L11.0057 22.0005L10.524 21.5948L10.5516 21.3934L10.638 21.1467L10.6562 20.8949L10.3305 20.8851L10.1661 20.6787L10.4366 20.4186L10.4731 20.2222L10.1711 20.1358L10.1888 19.9532L10.6192 19.888L11.2737 19.5736L11.4933 19.1709L12.1799 18.2923L12.0239 17.6053L12.2347 17.2395L12.866 17.2588L13.2909 16.9222L13.4282 15.5964L13.8995 14.9977L13.9819 14.6132L13.552 14.4755L13.2682 14.0101L12.2984 14.0002L11.5294 13.707L11.4929 13.1587L11.2362 12.71L10.5408 12.6996L10.139 12.0689L9.78213 11.8946L9.76387 12.0871L9.11432 12.1256L8.87642 11.7944L8.19875 11.6567L7.64051 12.3018L6.76195 12.1528L6.69828 11.1627L6.05713 11.0531L6.31428 10.5674L6.24074 10.2885L5.39821 10.8517L4.86811 10.787L4.67907 10.3729L4.79457 9.94599L5.08677 9.40751L5.75951 9.06694L7.05859 9.06645L7.05514 9.46279L7.52206 9.67996L7.48504 9.00278L7.82166 8.66419L8.50081 8.21799L8.54721 7.90408L9.22439 7.19926L9.94451 6.80045L9.88084 6.74813L10.3685 6.28911L10.5472 6.33649L10.6291 6.43916L10.8142 6.23383L10.8596 6.21359L10.6567 6.18497L10.4509 6.11636V5.91893L10.56 5.82959H10.8004L10.9104 5.87796L11.0057 6.07046L11.1222 6.05269V6.03591L11.1557 6.04726L11.4933 5.99543L11.5412 5.83058L11.7337 5.87895V6.05762L11.555 6.18052H11.5555L11.5817 6.37647L12.1932 6.56502C12.1932 6.56502 12.1937 6.56749 12.1947 6.57242L12.3354 6.56058L12.3448 6.29553L11.8601 6.0749L11.8324 5.94756L12.2347 5.81034L12.2525 5.42536L11.8319 5.16919L11.8043 4.52014L11.2278 4.80346H11.0175L11.0728 4.30939L10.288 4.1243L9.96327 4.3696V5.11786L9.37937 5.30295L9.14542 5.7906L8.89172 5.83157V5.20769L8.34287 5.13168L8.06844 4.95301L7.95788 4.54877L8.9396 3.97425L9.41985 3.82815L9.46822 4.15095L9.73573 4.13713L9.75646 3.97475L10.0363 3.93477L10.0413 3.87801L9.92082 3.82815L9.89318 3.65639L10.2372 3.62727L10.445 3.41108L10.4563 3.39529L10.4588 3.39628L10.522 3.33113L11.2451 3.23982L11.5649 3.51128L10.7263 3.95796L11.7934 4.20969L11.9316 3.85283H12.3981L12.5629 3.54188L12.2332 3.45946V3.06608L11.1992 2.60804L10.4855 2.69047L10.0827 2.90122L10.1104 3.41355L9.68934 3.34939L9.62468 3.06608L10.0279 2.69985L9.29596 2.66332L9.0857 2.72699L8.99439 2.97378L9.26881 3.02017L9.21403 3.2946L8.7476 3.32224L8.67455 3.50486L7.99786 3.52362C7.99786 3.52362 7.97911 3.13962 7.95196 3.13962C7.92481 3.13962 8.48255 3.13024 8.48255 3.13024L8.8858 2.73637L8.66567 2.6263L8.37298 2.9106L7.8873 2.88296L7.59461 2.48021H6.97222L6.32267 2.96539H6.91792L6.97222 3.13962L6.81773 3.28325L7.47665 3.30151L7.57734 3.53941L6.8355 3.51177L6.79947 3.32866L6.33304 3.22797L6.08576 3.09076L5.53049 3.0952C7.34832 1.77094 9.58371 0.987147 11.9998 0.987147C14.7845 0.987147 17.3289 2.02809 19.2701 3.73832L19.1393 3.97228L18.6314 4.17119L18.4172 4.40366L18.4666 4.67463L18.7286 4.71116L18.8866 5.10602L19.3387 4.92389L19.4132 5.45201H19.277L18.9058 5.39722L18.4942 5.46632L18.0959 6.029L17.5263 6.11833L17.4439 6.60598L17.6842 6.66275L17.6146 6.97616L17.049 6.86264L16.5303 6.97616L16.4202 7.26491L16.51 7.87101L16.8146 8.01366L17.3254 8.01069L17.6704 7.9796L17.7755 7.70517L18.3145 7.00479L18.6694 7.07735L19.0189 6.76146L19.084 7.00825L19.9438 7.5882L19.8387 7.72936L19.4512 7.70863L19.6003 7.91988L19.8387 7.9722L20.118 7.85571L20.1121 7.5191L20.236 7.4569L20.1363 7.35128L19.5628 7.03145L19.4117 6.60648H19.8885L20.041 6.75751L20.4517 7.1114L20.469 7.53933L20.8944 7.99243L21.0529 7.37152L21.3475 7.21061L21.4028 7.7185L21.6906 8.03439L22.2646 8.02451C22.3757 8.31029 22.4754 8.60101 22.5627 8.89765L22.503 8.95293ZM6.54528 5.45201L6.83352 5.3148L7.09413 5.37699L7.0043 5.72693L6.72296 5.81627L6.54528 5.45201ZM8.07486 6.27578V6.50233H7.41643L7.16965 6.43373L7.23134 6.27578L7.54772 6.14499H7.98009V6.27578H8.07486ZM8.37791 6.59167V6.81131L8.21306 6.91743L8.00773 6.95543C8.00773 6.95543 8.00773 6.62622 8.00773 6.59167H8.37791ZM8.19233 6.50233V6.24123L8.41888 6.44755L8.19233 6.50233ZM8.29549 7.03046V7.24418L8.13804 7.40212H7.78809L7.84288 7.16224L8.00823 7.14793L8.04228 7.0655L8.29549 7.03046ZM7.42384 6.59167H7.7876L7.32117 7.24368L7.12868 7.14052L7.17014 6.8661L7.42384 6.59167ZM8.91344 6.95543V7.16866H8.5635L8.46774 7.03046V6.83204H8.49538L8.91344 6.95543ZM8.59015 6.66225L8.68985 6.55761L8.85816 6.66225L8.72341 6.77331L8.59015 6.66225ZM22.6817 9.50869L22.7162 9.46822C22.7305 9.53041 22.7458 9.5926 22.7597 9.65577L22.6817 9.50869Z" fill="black" fill-opacity="0.6"/>
<path d="M1.8667 7.34644V7.68996C1.98664 7.40961 2.11892 7.13617 2.26057 6.86816L1.8667 7.34644Z" fill="black" fill-opacity="0.6"/>
</svg>
