<svg width="275" height="79" viewBox="0 0 275 79" fill="none" xmlns="http://www.w3.org/2000/svg">
<path d="M80.625 39.5C80.625 56.1376 67.1376 69.625 50.5 69.625C33.8624 69.625 20.375 56.1376 20.375 39.5C20.375 22.8624 33.8624 9.375 50.5 9.375C67.1376 9.375 80.625 22.8624 80.625 39.5Z" fill="#A6FF34"/>
<path d="M56.7219 41.9285L38.0846 34.7021L58.1056 21.9871L56.7219 41.9285Z" fill="black"/>
<path d="M45.1699 39.5984L62.2133 45.975L41.4028 57.4014L45.1699 39.5984Z" fill="black"/>
<path d="M90.625 53.1141V26.7733H107.495V30.7733H95.3955V37.9244H106.338V41.9244H95.3955V53.1141H90.625Z" fill="white"/>
<path d="M111.636 53.1141V33.3585H116.29V53.1141H111.636ZM113.976 30.5547C113.239 30.5547 112.604 30.3103 112.073 29.8215C111.541 29.3242 111.276 28.7283 111.276 28.0338C111.276 27.3307 111.541 26.7347 112.073 26.246C112.604 25.7487 113.239 25.5 113.976 25.5C114.722 25.5 115.356 25.7487 115.879 26.246C116.41 26.7347 116.676 27.3307 116.676 28.0338C116.676 28.7283 116.41 29.3242 115.879 29.8215C115.356 30.3103 114.722 30.5547 113.976 30.5547Z" fill="white"/>
<path d="M125.732 41.5386V53.1141H121.077V33.3585H125.526V36.7154H125.758C126.212 35.6093 126.936 34.7304 127.931 34.0788C128.934 33.4271 130.172 33.1013 131.647 33.1013C133.01 33.1013 134.197 33.3928 135.208 33.9759C136.229 34.5589 137.017 35.4035 137.574 36.5096C138.14 37.6158 138.419 38.9577 138.41 40.5354V53.1141H133.755V41.2556C133.755 39.9352 133.413 38.9019 132.727 38.1559C132.05 37.41 131.111 37.037 129.911 37.037C129.096 37.037 128.372 37.217 127.738 37.5772C127.112 37.9287 126.619 38.4389 126.259 39.1077C125.908 39.7765 125.732 40.5868 125.732 41.5386Z" fill="white"/>
<path d="M150.471 53.4614C148.92 53.4614 147.531 53.0627 146.305 52.2653C145.08 51.4678 144.111 50.3103 143.399 48.7926C142.688 47.2749 142.332 45.4314 142.332 43.2621C142.332 41.067 142.692 39.2149 143.412 37.7058C144.141 36.1881 145.122 35.0434 146.357 34.2717C147.591 33.4914 148.967 33.1013 150.484 33.1013C151.642 33.1013 152.593 33.2985 153.339 33.6929C154.085 34.0788 154.676 34.5461 155.113 35.0949C155.551 35.635 155.889 36.1452 156.129 36.6254H156.322V26.7733H160.99V53.1141H156.412V50.0016H156.129C155.889 50.4818 155.542 50.992 155.088 51.5322C154.633 52.0638 154.033 52.5182 153.287 52.8955C152.542 53.2728 151.603 53.4614 150.471 53.4614ZM151.77 49.6415C152.756 49.6415 153.596 49.3757 154.29 48.8441C154.985 48.3039 155.512 47.5536 155.872 46.5932C156.232 45.6329 156.412 44.5139 156.412 43.2363C156.412 41.9587 156.232 40.8483 155.872 39.9051C155.521 38.962 154.998 38.2288 154.303 37.7058C153.618 37.1827 152.773 36.9212 151.77 36.9212C150.733 36.9212 149.867 37.1913 149.173 37.7315C148.478 38.2717 147.956 39.0177 147.604 39.9695C147.253 40.9212 147.077 42.0102 147.077 43.2363C147.077 44.4711 147.253 45.5729 147.604 46.5418C147.964 47.5021 148.491 48.261 149.186 48.8183C149.889 49.3671 150.75 49.6415 151.77 49.6415Z" fill="white"/>
<path d="M175.812 33.3585V36.9598H164.458V33.3585H175.812ZM167.261 28.6254H171.916V47.172C171.916 47.798 172.01 48.2781 172.199 48.6125C172.396 48.9384 172.653 49.1613 172.971 49.2814C173.288 49.4014 173.639 49.4614 174.025 49.4614C174.316 49.4614 174.582 49.44 174.822 49.3971C175.071 49.3542 175.259 49.3156 175.388 49.2814L176.172 52.9212C175.924 53.007 175.568 53.1013 175.105 53.2042C174.651 53.3071 174.094 53.3671 173.433 53.3842C172.268 53.4185 171.218 53.2428 170.283 52.8569C169.349 52.4625 168.607 51.8537 168.059 51.0305C167.519 50.2074 167.253 49.1785 167.261 47.9437V28.6254Z" fill="white"/>
<path d="M179.705 53.1141V33.3585H184.219V36.6511H184.424C184.784 35.5107 185.401 34.6318 186.276 34.0145C187.159 33.3885 188.166 33.0756 189.298 33.0756C189.555 33.0756 189.842 33.0884 190.159 33.1141C190.485 33.1313 190.755 33.1613 190.969 33.2042V37.4871C190.772 37.4185 190.459 37.3585 190.031 37.3071C189.61 37.2471 189.203 37.217 188.809 37.217C187.96 37.217 187.197 37.4014 186.52 37.7701C185.852 38.1302 185.324 38.6318 184.939 39.2749C184.553 39.918 184.36 40.6597 184.36 41.5V53.1141H179.705Z" fill="white"/>
<path d="M201.992 53.5C200.012 53.5 198.302 53.0884 196.862 52.2653C195.43 51.4335 194.328 50.2588 193.557 48.7412C192.785 47.2149 192.4 45.4185 192.4 43.3521C192.4 41.3199 192.785 39.5364 193.557 38.0016C194.337 36.4582 195.426 35.2578 196.823 34.4003C198.22 33.5343 199.862 33.1013 201.748 33.1013C202.965 33.1013 204.114 33.2985 205.194 33.6929C206.283 34.0788 207.243 34.679 208.074 35.4936C208.914 36.3081 209.574 37.3457 210.054 38.6061C210.534 39.858 210.774 41.3499 210.774 43.082V44.5096H194.586V41.3714H206.313C206.304 40.4796 206.111 39.6865 205.734 38.992C205.357 38.2889 204.83 37.7358 204.152 37.3328C203.484 36.9298 202.704 36.7283 201.812 36.7283C200.861 36.7283 200.025 36.9598 199.305 37.4228C198.585 37.8773 198.023 38.4775 197.62 39.2235C197.226 39.9609 197.024 40.7712 197.016 41.6543V44.3939C197.016 45.5429 197.226 46.5289 197.646 47.3521C198.066 48.1667 198.653 48.7926 199.408 49.2299C200.162 49.6586 201.045 49.873 202.056 49.873C202.734 49.873 203.347 49.7787 203.895 49.59C204.444 49.3928 204.92 49.1056 205.322 48.7283C205.725 48.351 206.03 47.8837 206.235 47.3264L210.582 47.8151C210.307 48.9641 209.784 49.9673 209.013 50.8248C208.25 51.6736 207.273 52.3339 206.081 52.8055C204.89 53.2685 203.527 53.5 201.992 53.5Z" fill="white"/>
<path d="M219.367 41.5386V53.1141H214.712V33.3585H219.161V36.7154H219.393C219.847 35.6093 220.572 34.7304 221.566 34.0788C222.569 33.4271 223.808 33.1013 225.282 33.1013C226.645 33.1013 227.832 33.3928 228.844 33.9759C229.864 34.5589 230.653 35.4035 231.21 36.5096C231.775 37.6158 232.054 38.9577 232.046 40.5354V53.1141H227.391V41.2556C227.391 39.9352 227.048 38.9019 226.362 38.1559C225.685 37.41 224.746 37.037 223.546 37.037C222.732 37.037 222.007 37.217 221.373 37.5772C220.747 37.9287 220.254 38.4389 219.894 39.1077C219.543 39.7765 219.367 40.5868 219.367 41.5386Z" fill="white"/>
<path d="M244.107 53.4614C242.555 53.4614 241.166 53.0627 239.941 52.2653C238.715 51.4678 237.746 50.3103 237.035 48.7926C236.323 47.2749 235.967 45.4314 235.967 43.2621C235.967 41.067 236.327 39.2149 237.047 37.7058C237.776 36.1881 238.758 35.0434 239.992 34.2717C241.226 33.4914 242.602 33.1013 244.12 33.1013C245.277 33.1013 246.228 33.2985 246.974 33.6929C247.72 34.0788 248.311 34.5461 248.749 35.0949C249.186 35.635 249.524 36.1452 249.764 36.6254H249.957V26.7733H254.625V53.1141H250.047V50.0016H249.764C249.524 50.4818 249.177 50.992 248.723 51.5322C248.269 52.0638 247.669 52.5182 246.923 52.8955C246.177 53.2728 245.238 53.4614 244.107 53.4614ZM245.405 49.6415C246.391 49.6415 247.231 49.3757 247.926 48.8441C248.62 48.3039 249.147 47.5536 249.507 46.5932C249.867 45.6329 250.047 44.5139 250.047 43.2363C250.047 41.9587 249.867 40.8483 249.507 39.9051C249.156 38.962 248.633 38.2288 247.939 37.7058C247.253 37.1827 246.408 36.9212 245.405 36.9212C244.368 36.9212 243.502 37.1913 242.808 37.7315C242.114 38.2717 241.591 39.0177 241.239 39.9695C240.888 40.9212 240.712 42.0102 240.712 43.2363C240.712 44.4711 240.888 45.5729 241.239 46.5418C241.599 47.5021 242.127 48.261 242.821 48.8183C243.524 49.3671 244.385 49.6415 245.405 49.6415Z" fill="white"/>
</svg>
