<svg width="24" height="24" viewBox="0 0 24 24" fill="none" xmlns="http://www.w3.org/2000/svg">
<g clip-path="url(#clip0_193_4695)">
<path d="M7.58421 8.38677C7.4957 9.33083 7.43359 11.0016 7.99102 11.7127C7.99102 11.7127 7.72861 9.87739 10.081 7.57469C11.0282 6.64771 11.2471 5.38689 10.9164 4.44127C10.7285 3.90558 10.3853 3.46305 10.0872 3.15405C9.91331 2.97238 10.0468 2.67271 10.2999 2.68358C11.8309 2.7519 14.3122 3.17735 15.3665 5.8232C15.8292 6.98465 15.8634 8.18491 15.6429 9.40536C15.5031 10.1848 15.0063 11.9177 16.1398 12.1304C16.9487 12.2826 17.34 11.6397 17.5155 11.177C17.5885 10.9845 17.8416 10.9364 17.9782 11.0901C19.3446 12.6444 19.4611 14.475 19.1785 16.0511C18.6319 19.0975 15.5466 21.3148 12.4815 21.3148C8.65249 21.3148 5.60447 19.1239 4.81413 15.1582C4.49582 13.5574 4.6573 10.3898 7.12615 8.15386C7.30937 7.98616 7.60905 8.13523 7.58421 8.38677V8.38677Z" fill="url(#paint0_radial_193_4695)"/>
<path d="M13.8802 14.0837C12.4687 12.267 13.1007 10.1941 13.4469 9.36809C13.4935 9.25939 13.3693 9.15691 13.2715 9.22368C12.6644 9.63671 11.4206 10.6087 10.8415 11.9767C10.0573 13.826 10.1132 14.7312 10.5775 15.8368C10.857 16.5029 10.5325 16.6442 10.3694 16.669C10.2111 16.6939 10.0651 16.5883 9.94864 16.4781C9.61362 16.1564 9.37488 15.7478 9.25922 15.298C9.23438 15.2017 9.10861 15.1753 9.05116 15.2545C8.61639 15.8554 8.39125 16.8197 8.38038 17.5013C8.34622 19.6084 10.0868 21.3164 12.1923 21.3164C14.846 21.3164 16.7791 18.3817 15.2543 15.9284C14.8118 15.2141 14.3957 14.7468 13.8802 14.0837Z" fill="url(#paint1_radial_193_4695)"/>
</g>
<defs>
<radialGradient id="paint0_radial_193_4695" cx="0" cy="0" r="1" gradientUnits="userSpaceOnUse" gradientTransform="translate(11.7231 21.3631) rotate(-179.751) scale(10.9604 17.9838)">
<stop offset="0.314" stop-color="#FF9800"/>
<stop offset="0.662" stop-color="#FF6D00"/>
<stop offset="0.972" stop-color="#F44336"/>
</radialGradient>
<radialGradient id="paint1_radial_193_4695" cx="0" cy="0" r="1" gradientUnits="userSpaceOnUse" gradientTransform="translate(12.3383 10.4563) rotate(90.5787) scale(11.4679 8.63048)">
<stop offset="0.214" stop-color="#FFF176"/>
<stop offset="0.328" stop-color="#FFF27D"/>
<stop offset="0.487" stop-color="#FFF48F"/>
<stop offset="0.672" stop-color="#FFF7AD"/>
<stop offset="0.793" stop-color="#FFF9C4"/>
<stop offset="0.822" stop-color="#FFF8BD" stop-opacity="0.804"/>
<stop offset="0.863" stop-color="#FFF6AB" stop-opacity="0.529"/>
<stop offset="0.91" stop-color="#FFF38D" stop-opacity="0.209"/>
<stop offset="0.941" stop-color="#FFF176" stop-opacity="0"/>
</radialGradient>
<clipPath id="clip0_193_4695">
<rect width="19.875" height="19.875" fill="white" transform="translate(2.0625 2.0625)"/>
</clipPath>
</defs>
</svg>
