<svg width="80" height="80" viewBox="0 0 80 80" fill="none" xmlns="http://www.w3.org/2000/svg">
<path d="M40 80C62.0914 80 80 62.0914 80 40C80 17.9086 62.0914 0 40 0C17.9086 0 0 17.9086 0 40C0 62.0914 17.9086 80 40 80Z" fill="#F15233"/>
<path d="M78.5208 50.8264C76.3919 58.3772 72.0921 65.1364 66.1552 70.2648C60.2184 75.3932 52.906 78.6649 45.126 79.6738L24.1523 58.7001L26.605 42.779C19.9313 31.758 33.2734 32.1738 33.2734 32.1738L37.8945 29.7054L41.5102 33.3159L44.926 29.9264L40.5839 25.7896L43.8629 20.3738L52.3471 28.8633L53.9629 26.2633L78.5208 50.8264Z" fill="url(#paint0_linear_39_901)"/>
<path d="M37.8948 29.7053C36.3767 30.3596 34.7473 30.7169 33.0948 30.7579C28.3579 27.9895 21.9158 30.8737 21.9158 36.9369C21.9158 39.2 23.3421 42.2948 25.5685 43.0527V43.1579C23.9158 43.8948 23.4632 47.6737 25.6579 49.0316V49.1211C23.2527 49.9211 21.6685 51.4684 21.6685 54.1369C21.6685 58.7316 25.9685 60.0105 29.7316 60.0105C34.3158 60.0105 37.7264 58.3421 37.7264 53.2263C37.7264 46.9105 28.8264 49.2526 28.8264 45.8579C28.8264 44.6526 29.4579 44.1895 30.5579 43.9527C34.2421 43.2684 36.5106 40.3842 36.5106 36.6158C36.505 35.9753 36.3856 35.3409 36.1579 34.7421C36.7463 34.5974 37.3262 34.4199 37.8948 34.2105V29.7053ZM29.6421 51.579C31.1421 51.579 33.2737 51.8474 33.2737 53.8105C33.2737 55.7737 31.5579 56.1579 29.9527 56.1579C28.4264 56.1579 26.1369 55.9158 26.1369 53.9105C26.1369 51.9053 28.0842 51.579 29.6421 51.579ZM29.3632 40C27.4211 40 26.6053 38.8421 26.6053 36.9842C26.6053 32.5842 31.979 32.6263 31.979 36.9421C31.979 38.7526 31.2737 40.0053 29.3474 40.0053L29.3632 40Z" fill="white"/>
<path d="M58.3315 48.7948V44.4211C57.5606 44.9102 56.6655 45.1678 55.7526 45.1632C54.121 45.1632 53.8315 43.5527 53.8315 42.2316V34.1C56.6263 34.1 58.3263 34.1895 58.3263 34.1895V29.9474H53.8315C53.7858 28.7178 53.8298 27.4864 53.9631 26.2632H48.9473C49.0946 27.4854 49.1386 28.7178 49.0789 29.9474H46.9736V34.2106C47.6668 34.0744 48.3767 34.0443 49.0789 34.1211V34.2106H49.0526V42.0158C49.0526 45.9 49.5789 49.6684 54.3157 49.6684C55.7039 49.7096 57.081 49.4096 58.3263 48.7948H58.3315Z" fill="white"/>
<path d="M42.4841 20C41.6599 20.0574 40.8882 20.4254 40.3247 21.0295C39.7611 21.6337 39.4478 22.4291 39.4478 23.2553C39.4478 24.0814 39.7611 24.8769 40.3247 25.481C40.8882 26.0852 41.6599 26.4531 42.4841 26.5105C44.1841 26.5105 45.463 24.9316 45.463 23.2789C45.463 21.6263 44.2104 20 42.4841 20Z" fill="white"/>
<path d="M40.0264 29.9263C40.1843 31.2473 40.1685 47.7578 40.0264 49.4H44.9211C44.779 47.821 44.7632 31.2578 44.9211 29.9526L40.0264 29.9263Z" fill="white"/>
<defs>
<linearGradient id="paint0_linear_39_901" x1="30.1997" y1="33.6264" x2="65.205" y2="68.6317" gradientUnits="userSpaceOnUse">
<stop stop-color="#A63823"/>
<stop offset="0.17" stop-color="#A63823" stop-opacity="0.86"/>
<stop offset="0.52" stop-color="#A63823" stop-opacity="0.51"/>
<stop offset="0.97" stop-color="#A63823" stop-opacity="0"/>
</linearGradient>
</defs>
</svg>
