<svg width="200" height="80" viewBox="0 0 200 80" fill="none" xmlns="http://www.w3.org/2000/svg">
<path d="M193.807 46.5264L199.355 49.8553C197.555 52.2424 193.248 56.3378 185.801 56.3378C176.555 56.3378 169.668 49.8991 169.668 41.7082C169.668 32.9918 176.628 27.0786 185.023 27.0786C193.467 27.0786 197.603 33.1232 198.942 36.3864L199.672 38.0508L177.917 46.1541C179.572 49.0887 182.151 50.578 185.801 50.578C189.452 50.578 191.982 48.9573 193.807 46.5264ZM176.749 41.2483L191.277 35.817C190.474 33.9992 188.089 32.7071 185.242 32.7071C181.616 32.7071 176.579 35.598 176.749 41.2483Z" fill="#FF302F"/>
<path d="M159.18 12.1643H166.188V55.0019H159.18V12.1643Z" fill="#20B15A"/>
<path d="M148.133 28.2174H154.898V54.2353C154.898 65.0323 147.816 69.4781 139.445 69.4781C131.561 69.4781 126.816 64.7038 125.04 60.8274L131.245 58.5059C132.364 60.8931 135.065 63.7183 139.445 63.7183C144.823 63.7183 148.133 60.7179 148.133 55.1113V53.0089H147.889C146.283 54.7609 143.217 56.3378 139.324 56.3378C131.196 56.3378 123.75 49.9647 123.75 41.752C123.75 33.4954 131.196 27.0566 139.324 27.0566C143.193 27.0566 146.283 28.6116 147.889 30.3198H148.133V28.2174ZM148.619 41.752C148.619 36.5834 144.799 32.8165 139.932 32.8165C135.017 32.8165 130.88 36.5834 130.88 41.752C130.88 46.8548 135.017 50.556 139.932 50.556C144.799 50.5779 148.619 46.8548 148.619 41.752Z" fill="#3686F7"/>
<path d="M85.2778 41.6425C85.2778 50.0742 77.9776 56.2721 69.0227 56.2721C60.0678 56.2721 52.7676 50.0523 52.7676 41.6425C52.7676 33.1669 60.0678 26.991 69.0227 26.991C77.9776 26.991 85.2778 33.1669 85.2778 41.6425ZM78.1723 41.6425C78.1723 36.3863 73.9382 32.7727 69.0227 32.7727C64.1072 32.7727 59.8731 36.3863 59.8731 41.6425C59.8731 46.8548 64.1072 50.5122 69.0227 50.5122C73.9382 50.5122 78.1723 46.8548 78.1723 41.6425Z" fill="#FF302F"/>
<path d="M120.781 41.7082C120.781 50.14 113.481 56.3378 104.526 56.3378C95.5712 56.3378 88.271 50.14 88.271 41.7082C88.271 33.2327 95.5712 27.0786 104.526 27.0786C113.481 27.0786 120.781 33.2108 120.781 41.7082ZM113.651 41.7082C113.651 36.4521 109.417 32.8385 104.502 32.8385C99.5863 32.8385 95.3522 36.4521 95.3522 41.7082C95.3522 46.9206 99.5863 50.578 104.502 50.578C109.442 50.578 113.651 46.8987 113.651 41.7082Z" fill="#FFBA40"/>
<path d="M26.0487 49.9209C15.8527 49.9209 7.87118 42.5185 7.87118 33.3422C7.87118 24.1658 15.8527 16.7634 26.0487 16.7634C31.5482 16.7634 35.5633 18.7126 38.5321 21.2092L43.4232 16.8072C39.2864 13.2374 33.7626 10.5217 26.0487 10.5217C12.081 10.5217 0.327637 20.7712 0.327637 33.3422C0.327637 45.9131 12.081 56.1626 26.0487 56.1626C33.5922 56.1626 39.2864 53.9288 43.7395 49.7676C48.3143 45.6503 49.7257 39.8686 49.7257 35.1818C49.7257 33.7145 49.531 32.2033 49.312 31.0864H26.0487V37.1748H42.6202C42.1335 40.9855 40.7951 43.5917 38.8241 45.3656C36.4393 47.5338 32.6676 49.9209 26.0487 49.9209Z" fill="#3686F7"/>
</svg>
