<svg width="200" height="80" viewBox="0 0 200 80" fill="none" xmlns="http://www.w3.org/2000/svg">
<path d="M159.166 27.17V5.33301H164.141V24.1045C162.763 24.7245 160.888 25.8956 159.166 27.17ZM150.517 33.7486C152.047 32.0954 153.617 30.4421 155.492 29.0299V5.33301H150.517V33.7486ZM92.8818 51.108C92.8818 56.9289 95.4459 62.4742 100.153 66.7107C104.822 70.9128 110.984 73.2549 117.489 73.2549C120.245 73.2549 123.077 72.7383 125.067 71.8428V67.3652C122.732 68.2607 119.901 68.7773 117.489 68.7773C106.85 68.7773 97.8951 60.7176 97.8951 51.1424V47.1126C97.8951 37.5374 106.889 29.4777 117.489 29.4777C122.771 29.4777 127.708 31.3032 131.382 34.6097C135.055 37.9162 137.084 42.3594 137.084 47.1126V73.2894H142.059V46.2515C141.753 40.5339 139.036 35.1952 134.443 31.1998C129.812 27.2044 123.804 25.0001 117.489 25.0001C111.022 25.0001 104.86 27.3078 100.153 31.5443C95.4841 35.7463 92.8818 41.2917 92.8818 47.147V51.108V51.108ZM167.356 40.3617C169.613 38.3296 172.522 37.1929 175.392 37.1929C181.554 37.1929 186.338 41.5328 186.338 47.0437V51.0735C186.338 56.6189 181.516 60.9243 175.392 60.9243C172.407 60.9243 169.537 59.4432 167.279 56.7911C165.289 54.449 163.988 51.2458 163.796 48.387L159.778 52.8646C160.582 56.24 162.533 59.5121 165.327 61.7854C168.197 64.1275 171.795 65.4363 175.392 65.4363C184.194 65.4363 191.351 58.9955 191.351 51.108V47.0781C191.351 43.3238 189.667 39.7417 186.605 37.0207C183.544 34.2653 179.564 32.7498 175.392 32.7498C172.752 32.7498 168.58 33.6109 163.605 37.6407C162.266 38.8462 159.127 41.6706 157.214 43.6683C153.999 46.837 149.369 51.5557 145.388 56.3433V63.3353C149.79 58.2377 152.315 55.3789 156.487 51.0735C160.161 47.147 164.753 42.4283 167.356 40.3617V40.3617ZM49.7895 31.9231V26.6189C45.2736 24.449 40.3751 23.4846 33.8691 23.4846C27.2101 23.4846 20.8955 25.6889 16.1117 29.6499C11.2897 33.6453 8.64906 38.8807 8.64906 44.4605V45.9071C8.64906 57.48 18.9437 66.883 31.6494 66.883C41.9441 66.883 46.1921 63.852 47.2637 62.8876V49.4203H30.4248V53.8979H42.5947V60.6487H42.5565C40.9874 61.1998 37.7344 62.3709 31.6494 62.3709C26.8274 62.3709 22.2733 60.6832 18.9055 57.5833C15.4994 54.4834 13.6625 50.3502 13.6625 45.8726V44.426C13.6625 35.5052 22.9238 27.9277 33.9074 27.9277C41.4466 27.9622 45.9625 29.0988 49.7895 31.9231V31.9231ZM86.0697 37.1929C87.9449 37.1929 89.5522 37.4685 90.8534 38.0196C91.4658 36.6419 92.1164 35.4708 93.0348 34.0931C91.6954 33.232 88.4424 32.6809 86.0697 32.6809C76.9996 32.6809 70.1493 38.8462 70.1493 47.0437V73.2205H75.1244V47.0437C75.1244 41.2572 79.602 37.1929 86.0697 37.1929V37.1929ZM0 44.4605V45.9071C0 53.6912 3.29124 60.9243 9.22312 66.3319C15.155 71.705 23.1152 74.6671 31.6112 74.6671C38.4615 74.6671 44.5082 73.2894 49.6364 70.5339C53.8462 68.2607 55.7214 65.9874 55.8745 65.7808V41.6706H30.4248V46.1482H50.8994V64.4375C48.4883 66.6074 42.7861 70.2239 31.6494 70.2239C24.3781 70.2239 17.6426 67.7096 12.6674 63.1631C7.73058 58.651 5.0134 52.5202 5.0134 45.9415V44.4949C5.0134 38.2607 8.11328 32.0609 13.5476 27.48C19.0968 22.7957 26.3299 20.2125 33.9074 20.2125C40.9874 20.2125 45.886 21.1769 49.8278 23.3468V18.2836C45.6946 16.6993 40.7578 16.0104 33.8691 16.0104C15.4994 16.0104 0 29.0299 0 44.4605ZM133.372 73.2205V47.0437C133.372 38.984 126.368 32.6809 117.413 32.6809C113.241 32.6809 109.261 34.1964 106.2 36.9518C103.138 39.7073 101.454 43.2894 101.454 47.0092V51.0391C101.454 58.8233 108.764 65.3675 117.375 65.3675C119.747 65.3675 122.962 64.8508 124.952 63.3698V58.7199C123 60.1321 120.207 60.9587 117.375 60.9587C111.251 60.9587 106.429 56.6189 106.429 51.108V47.0781C106.429 41.5328 111.251 37.2274 117.375 37.2274C123.536 37.2274 128.32 41.5672 128.32 47.0781V73.2549H133.372V73.2205ZM86.0697 29.4088C89.4374 29.4088 92.3842 30.0632 95.0249 31.4065C96.2495 29.9943 97.5124 28.8921 98.4692 28.0311C95.6755 26.1022 90.93 24.9312 86.1079 24.9312C79.181 24.9312 72.9047 27.17 68.4271 31.2687C63.9878 35.2986 61.5385 40.9128 61.5385 47.0781V73.2549H66.5136V47.0781C66.4753 36.6763 74.5121 29.4088 86.0697 29.4088V29.4088ZM192.729 31.4754C188.06 27.2733 181.898 24.9312 175.392 24.9312C170.647 24.9312 165.901 26.5156 163.261 28.0999C157.826 31.3376 153.387 34.8853 145.35 44.2194V50.9358C152.162 42.945 158.592 36.6763 163.49 33.1975C166.705 30.8898 171.259 29.4432 175.392 29.4432C186.031 29.4432 194.987 37.5374 194.987 47.0781V51.108C194.987 55.8267 192.92 60.2699 189.17 63.6109C185.457 66.9174 180.559 68.7429 175.392 68.7429C166.667 68.7429 158.974 63.3353 156.908 55.9989L153.387 59.8221C155.951 67.5374 165.212 73.2205 175.392 73.2205C181.898 73.2205 188.021 70.8784 192.729 66.6763C197.398 62.4398 200 56.9289 200 51.0735V47.0437C200 41.2228 197.398 35.6774 192.729 31.4754Z" fill="#00B45E"/>
</svg>
