<svg width="24" height="24" viewBox="0 0 24 24" fill="none" xmlns="http://www.w3.org/2000/svg">
<path d="M0.717793 16.3162C0.225948 15.6888 -0.00993581 15.0163 0.0201771 14.3237C0.05029 13.5609 0.39157 12.9636 0.672624 12.5972C0.3464 11.7842 0.220931 10.5044 1.31001 9.51067C2.10801 8.78294 3.46309 8.45671 5.34013 8.54705C6.66008 8.60728 7.76422 8.8532 7.80939 8.86324H7.81441C8.06535 8.90841 8.33134 8.96361 8.60236 9.02384C8.62244 8.70264 8.56723 7.90464 7.97501 6.1079C7.27237 3.96989 7.31252 2.33375 8.1055 1.23965C8.93862 0.0903388 10.2686 0 10.6601 0C11.0365 0 11.3828 0.155583 11.6287 0.441656C12.1858 1.08908 12.1206 2.28356 12.0503 2.83563C12.7128 4.6123 14.5697 8.96863 16.1406 10.1782C16.1707 10.1982 16.1958 10.2233 16.2209 10.2484C16.6827 10.7353 16.9938 11.2622 17.2046 11.724C17.5007 11.5634 17.837 11.473 18.1983 11.473H21.2598C22.4142 11.473 23.3477 12.4115 23.3477 13.5609V21.7164C23.3477 22.8708 22.4091 23.8043 21.2598 23.8043H18.1983C17.7517 23.8043 17.3351 23.6637 16.9938 23.4228L15.8144 23.5634C15.6337 23.5885 12.4217 23.995 9.12432 23.9297C8.52708 23.9749 7.96497 24 7.44301 24C6.54464 24 5.76171 23.9297 5.10926 23.7892C3.5735 23.463 2.52457 22.8105 1.99257 21.8519C1.58605 21.1192 1.58605 20.3915 1.65129 19.9297C0.652549 19.0263 0.476891 18.0276 0.512022 17.325C0.532098 16.9184 0.622435 16.5721 0.717793 16.3162ZM21.2598 22.4492C21.6664 22.4492 21.9926 22.1179 21.9926 21.7164V13.5558C21.9926 13.1493 21.6613 12.8231 21.2598 12.8231H18.1983C17.7918 12.8231 17.4656 13.1543 17.4656 13.5558V21.7114C17.4656 22.1179 17.7968 22.4442 18.1983 22.4442H21.2598V22.4492V22.4492ZM2.00261 15.729C2.2134 15.9498 2.25355 16.2861 2.09295 16.5471C2.09295 16.5521 1.88718 16.9034 1.86208 17.3852C1.82695 18.0427 2.14314 18.6248 2.80562 19.1217C3.04151 19.3024 3.13687 19.6136 3.03649 19.8946C3.03649 19.8996 2.82068 20.5621 3.172 21.1895C3.50826 21.7917 4.25606 22.2233 5.39032 22.4642C6.29872 22.66 7.53335 22.6951 9.04904 22.5747C9.06911 22.5747 9.09421 22.5747 9.1193 22.5747C12.3464 22.6449 15.6086 22.2233 15.6438 22.2183H15.6488L16.1557 22.1581C16.1256 22.0176 16.1105 21.867 16.1105 21.7164V13.5558C16.1105 13.34 16.1456 13.1292 16.2059 12.9335C16.1155 12.5972 15.8646 11.8494 15.2724 11.212C13.0189 9.42534 10.8157 3.39774 10.7203 3.13676C10.6802 3.03137 10.6701 2.91593 10.6902 2.8005C10.7755 2.23839 10.7454 1.55082 10.6249 1.34504C10.3589 1.35006 9.64126 1.42535 9.20964 2.02258C8.69772 2.73024 8.71779 3.99498 9.26986 5.67127C10.113 8.22585 10.1833 9.57089 9.51579 10.1631C9.18454 10.4592 8.74289 10.4743 8.42168 10.3588C8.11553 10.2886 7.82444 10.2284 7.54841 10.1832C7.52833 10.1782 7.50324 10.1731 7.48316 10.1681C5.94239 9.83187 3.18203 9.6261 2.22344 10.4994C1.41039 11.2422 1.98755 12.2258 2.0528 12.3312C2.2385 12.6123 2.18329 12.9787 1.93235 13.2045C1.92733 13.2095 1.40035 13.7064 1.37526 14.3739C1.35518 14.8206 1.56597 15.2773 2.00261 15.729Z" fill="black" fill-opacity="0.6"/>
</svg>
