<svg width="80" height="80" viewBox="0 0 80 80" fill="none" xmlns="http://www.w3.org/2000/svg">
<path d="M72.5773 0H7.42273C3.32327 0 0 3.32327 0 7.42273V72.5773C0 76.6767 3.32327 80 7.42273 80H72.5773C76.6767 80 80 76.6767 80 72.5773V7.42273C80 3.32327 76.6767 0 72.5773 0Z" fill="url(#paint0_linear_39_899)"/>
<path d="M28.818 21.8182C28.818 23.1667 28.4181 24.4849 27.6689 25.6062C26.9197 26.7274 25.8549 27.6013 24.609 28.1174C23.3632 28.6334 21.9923 28.7684 20.6697 28.5054C19.3471 28.2423 18.1322 27.5929 17.1786 26.6394C16.2251 25.6858 15.5757 24.4709 15.3127 23.1483C15.0496 21.8257 15.1846 20.4548 15.7006 19.209C16.2167 17.9631 17.0906 16.8983 18.2118 16.1491C19.3331 15.3999 20.6513 15 21.9998 15C23.8081 15 25.5424 15.7183 26.821 16.997C28.0997 18.2757 28.818 20.0099 28.818 21.8182Z" fill="white"/>
<path d="M27.2726 33.1819V63.3046C27.2738 63.5268 27.2311 63.7471 27.1469 63.9527C27.0627 64.1584 26.9386 64.3454 26.7819 64.5029C26.6252 64.6605 26.4389 64.7855 26.2337 64.8708C26.0285 64.9562 25.8085 65.0001 25.5863 65.0001H18.3999C18.1777 65.0007 17.9575 64.9573 17.7521 64.8726C17.5467 64.7878 17.36 64.6633 17.2029 64.5061C17.0458 64.349 16.9212 64.1624 16.8365 63.9569C16.7517 63.7515 16.7084 63.5314 16.709 63.3092V33.1819C16.709 32.7334 16.8871 32.3033 17.2042 31.9862C17.5214 31.6691 17.9514 31.491 18.3999 31.491H25.5863C26.0339 31.4922 26.4629 31.6709 26.779 31.9878C27.0951 32.3048 27.2726 32.7342 27.2726 33.1819Z" fill="white"/>
<path d="M64.8358 48.8637V63.4455C64.8364 63.6498 64.7966 63.8522 64.7187 64.0411C64.6408 64.23 64.5263 64.4016 64.3818 64.5461C64.2374 64.6906 64.0657 64.805 63.8769 64.8829C63.688 64.9609 63.4856 65.0007 63.2813 65.0001H55.554C55.3497 65.0007 55.1473 64.9609 54.9584 64.8829C54.7695 64.805 54.5979 64.6906 54.4534 64.5461C54.3089 64.4016 54.1945 64.23 54.1165 64.0411C54.0386 63.8522 53.9988 63.6498 53.9994 63.4455V49.3137C53.9994 47.2046 54.6176 40.0773 48.4858 40.0773C43.7358 40.0773 42.7676 44.9546 42.5767 47.1455V63.4455C42.5768 63.8539 42.4161 64.2459 42.1295 64.5368C41.8428 64.8277 41.4532 64.9941 41.0449 65.0001H33.5813C33.3773 65.0001 33.1754 64.9598 32.987 64.8816C32.7987 64.8035 32.6276 64.6889 32.4836 64.5445C32.3396 64.4001 32.2256 64.2286 32.1479 64.0401C32.0703 63.8515 32.0307 63.6494 32.0313 63.4455V33.0501C32.0307 32.8461 32.0703 32.6441 32.1479 32.4555C32.2256 32.2669 32.3396 32.0955 32.4836 31.9511C32.6276 31.8067 32.7987 31.6921 32.987 31.6139C33.1754 31.5358 33.3773 31.4955 33.5813 31.4955H41.0449C41.4572 31.4955 41.8526 31.6593 42.1441 31.9508C42.4357 32.2424 42.5994 32.6378 42.5994 33.0501V35.6773C44.3631 33.0319 46.9767 30.991 52.554 30.991C64.9085 30.991 64.8358 42.5273 64.8358 48.8637Z" fill="white"/>
<defs>
<linearGradient id="paint0_linear_39_899" x1="40" y1="1.81364" x2="40" y2="75.2091" gradientUnits="userSpaceOnUse">
<stop stop-color="#0D87FF"/>
<stop offset="1" stop-color="#0B63BD"/>
</linearGradient>
</defs>
</svg>
