<svg width="235" height="65" viewBox="0 0 235 65" fill="none" xmlns="http://www.w3.org/2000/svg">
<path d="M60.25 32.5C60.25 49.1376 46.7626 62.625 30.125 62.625C13.4874 62.625 0 49.1376 0 32.5C0 15.8624 13.4874 2.375 30.125 2.375C46.7626 2.375 60.25 15.8624 60.25 32.5Z" fill="#A6FF34"/>
<path d="M36.3469 34.9285L17.7096 27.7021L37.7306 14.9871L36.3469 34.9285Z" fill="black"/>
<path d="M24.7949 32.5984L41.8383 38.975L21.0278 50.4014L24.7949 32.5984Z" fill="black"/>
<path d="M70.25 46.1141V19.7733H87.1203V23.7733H75.0205V30.9244H85.963V34.9244H75.0205V46.1141H70.25Z" fill="black"/>
<path d="M91.2607 46.1141V26.3585H95.9155V46.1141H91.2607ZM93.601 23.5547C92.8637 23.5547 92.2294 23.3103 91.6979 22.8215C91.1664 22.3242 90.9007 21.7283 90.9007 21.0338C90.9007 20.3307 91.1664 19.7347 91.6979 19.246C92.2294 18.7487 92.8637 18.5 93.601 18.5C94.3468 18.5 94.9811 18.7487 95.504 19.246C96.0355 19.7347 96.3012 20.3307 96.3012 21.0338C96.3012 21.7283 96.0355 22.3242 95.504 22.8215C94.9811 23.3103 94.3468 23.5547 93.601 23.5547Z" fill="black"/>
<path d="M105.357 34.5386V46.1141H100.702V26.3585H105.151V29.7154H105.383C105.837 28.6093 106.561 27.7304 107.556 27.0788C108.559 26.4271 109.797 26.1013 111.272 26.1013C112.635 26.1013 113.822 26.3928 114.833 26.9759C115.854 27.5589 116.642 28.4035 117.199 29.5096C117.765 30.6158 118.044 31.9577 118.035 33.5354V46.1141H113.38V34.2556C113.38 32.9352 113.038 31.9019 112.352 31.1559C111.675 30.41 110.736 30.037 109.536 30.037C108.721 30.037 107.997 30.217 107.363 30.5772C106.737 30.9287 106.244 31.4389 105.884 32.1077C105.533 32.7765 105.357 33.5868 105.357 34.5386Z" fill="black"/>
<path d="M130.096 46.4614C128.545 46.4614 127.156 46.0627 125.93 45.2653C124.705 44.4678 123.736 43.3103 123.024 41.7926C122.313 40.2749 121.957 38.4314 121.957 36.2621C121.957 34.067 122.317 32.2149 123.037 30.7058C123.766 29.1881 124.747 28.0434 125.982 27.2717C127.216 26.4914 128.592 26.1013 130.109 26.1013C131.267 26.1013 132.218 26.2985 132.964 26.6929C133.71 27.0788 134.301 27.5461 134.738 28.0949C135.176 28.635 135.514 29.1452 135.754 29.6254H135.947V19.7733H140.615V46.1141H136.037V43.0016H135.754C135.514 43.4818 135.167 43.992 134.713 44.5322C134.258 45.0638 133.658 45.5182 132.912 45.8955C132.167 46.2728 131.228 46.4614 130.096 46.4614ZM131.395 42.6415C132.381 42.6415 133.221 42.3757 133.915 41.8441C134.61 41.3039 135.137 40.5536 135.497 39.5932C135.857 38.6329 136.037 37.5139 136.037 36.2363C136.037 34.9587 135.857 33.8483 135.497 32.9051C135.146 31.962 134.623 31.2288 133.928 30.7058C133.243 30.1827 132.398 29.9212 131.395 29.9212C130.358 29.9212 129.492 30.1913 128.798 30.7315C128.103 31.2717 127.581 32.0177 127.229 32.9695C126.878 33.9212 126.702 35.0102 126.702 36.2363C126.702 37.4711 126.878 38.5729 127.229 39.5418C127.589 40.5021 128.116 41.261 128.811 41.8183C129.514 42.3671 130.375 42.6415 131.395 42.6415Z" fill="black"/>
<path d="M155.437 26.3585V29.9598H144.083V26.3585H155.437ZM146.886 21.6254H151.541V40.172C151.541 40.798 151.635 41.2781 151.824 41.6125C152.021 41.9384 152.278 42.1613 152.596 42.2814C152.913 42.4014 153.264 42.4614 153.65 42.4614C153.941 42.4614 154.207 42.44 154.447 42.3971C154.696 42.3542 154.884 42.3156 155.013 42.2814L155.797 45.9212C155.549 46.007 155.193 46.1013 154.73 46.2042C154.276 46.3071 153.719 46.3671 153.058 46.3842C151.893 46.4185 150.843 46.2428 149.908 45.8569C148.974 45.4625 148.232 44.8537 147.684 44.0305C147.144 43.2074 146.878 42.1785 146.886 40.9437V21.6254Z" fill="black"/>
<path d="M159.33 46.1141V26.3585H163.844V29.6511H164.049C164.409 28.5107 165.026 27.6318 165.901 27.0145C166.784 26.3885 167.791 26.0756 168.923 26.0756C169.18 26.0756 169.467 26.0884 169.784 26.1141C170.11 26.1313 170.38 26.1613 170.594 26.2042V30.4871C170.397 30.4185 170.084 30.3585 169.656 30.3071C169.235 30.2471 168.828 30.217 168.434 30.217C167.585 30.217 166.822 30.4014 166.145 30.7701C165.477 31.1302 164.949 31.6318 164.564 32.2749C164.178 32.918 163.985 33.6597 163.985 34.5V46.1141H159.33Z" fill="black"/>
<path d="M181.617 46.5C179.637 46.5 177.927 46.0884 176.487 45.2653C175.055 44.4335 173.953 43.2588 173.182 41.7412C172.41 40.2149 172.025 38.4185 172.025 36.3521C172.025 34.3199 172.41 32.5364 173.182 31.0016C173.962 29.4582 175.051 28.2578 176.448 27.4003C177.845 26.5343 179.487 26.1013 181.373 26.1013C182.59 26.1013 183.739 26.2985 184.819 26.6929C185.908 27.0788 186.868 27.679 187.699 28.4936C188.539 29.3081 189.199 30.3457 189.679 31.6061C190.159 32.858 190.399 34.3499 190.399 36.082V37.5096H174.211V34.3714H185.938C185.929 33.4796 185.736 32.6865 185.359 31.992C184.982 31.2889 184.455 30.7358 183.777 30.3328C183.109 29.9298 182.329 29.7283 181.437 29.7283C180.486 29.7283 179.65 29.9598 178.93 30.4228C178.21 30.8773 177.648 31.4775 177.245 32.2235C176.851 32.9609 176.649 33.7712 176.641 34.6543V37.3939C176.641 38.5429 176.851 39.5289 177.271 40.3521C177.691 41.1667 178.278 41.7926 179.033 42.2299C179.787 42.6586 180.67 42.873 181.681 42.873C182.359 42.873 182.972 42.7787 183.52 42.59C184.069 42.3928 184.545 42.1056 184.947 41.7283C185.35 41.351 185.655 40.8837 185.86 40.3264L190.207 40.8151C189.932 41.9641 189.409 42.9673 188.638 43.8248C187.875 44.6736 186.898 45.3339 185.706 45.8055C184.515 46.2685 183.152 46.5 181.617 46.5Z" fill="black"/>
<path d="M198.992 34.5386V46.1141H194.337V26.3585H198.786V29.7154H199.018C199.472 28.6093 200.197 27.7304 201.191 27.0788C202.194 26.4271 203.433 26.1013 204.907 26.1013C206.27 26.1013 207.457 26.3928 208.469 26.9759C209.489 27.5589 210.278 28.4035 210.835 29.5096C211.4 30.6158 211.679 31.9577 211.671 33.5354V46.1141H207.016V34.2556C207.016 32.9352 206.673 31.9019 205.987 31.1559C205.31 30.41 204.371 30.037 203.171 30.037C202.357 30.037 201.632 30.217 200.998 30.5772C200.372 30.9287 199.879 31.4389 199.519 32.1077C199.168 32.7765 198.992 33.5868 198.992 34.5386Z" fill="black"/>
<path d="M223.732 46.4614C222.18 46.4614 220.791 46.0627 219.566 45.2653C218.34 44.4678 217.371 43.3103 216.66 41.7926C215.948 40.2749 215.592 38.4314 215.592 36.2621C215.592 34.067 215.952 32.2149 216.672 30.7058C217.401 29.1881 218.383 28.0434 219.617 27.2717C220.851 26.4914 222.227 26.1013 223.745 26.1013C224.902 26.1013 225.853 26.2985 226.599 26.6929C227.345 27.0788 227.936 27.5461 228.374 28.0949C228.811 28.635 229.149 29.1452 229.389 29.6254H229.582V19.7733H234.25V46.1141H229.672V43.0016H229.389C229.149 43.4818 228.802 43.992 228.348 44.5322C227.894 45.0638 227.294 45.5182 226.548 45.8955C225.802 46.2728 224.863 46.4614 223.732 46.4614ZM225.03 42.6415C226.016 42.6415 226.856 42.3757 227.551 41.8441C228.245 41.3039 228.772 40.5536 229.132 39.5932C229.492 38.6329 229.672 37.5139 229.672 36.2363C229.672 34.9587 229.492 33.8483 229.132 32.9051C228.781 31.962 228.258 31.2288 227.564 30.7058C226.878 30.1827 226.033 29.9212 225.03 29.9212C223.993 29.9212 223.127 30.1913 222.433 30.7315C221.739 31.2717 221.216 32.0177 220.864 32.9695C220.513 33.9212 220.337 35.0102 220.337 36.2363C220.337 37.4711 220.513 38.5729 220.864 39.5418C221.224 40.5021 221.752 41.261 222.446 41.8183C223.149 42.3671 224.01 42.6415 225.03 42.6415Z" fill="black"/>
</svg>
