<svg width="80" height="80" viewBox="0 0 80 80" fill="none" xmlns="http://www.w3.org/2000/svg">
<path d="M61 0H19C13.9609 0 9.12816 2.00178 5.56497 5.56497C2.00178 9.12816 0 13.9609 0 19L0 61C0 66.0391 2.00178 70.8718 5.56497 74.435C9.12816 77.9982 13.9609 80 19 80H61C66.0391 80 70.8718 77.9982 74.435 74.435C77.9982 70.8718 80 66.0391 80 61V19C80 13.9609 77.9982 9.12816 74.435 5.56497C70.8718 2.00178 66.0391 0 61 0V0ZM62.5 59.6H54.75C54.3 59.6 54.05 59.3 54 58.75L51.85 36.95L43.8 57.6C43.55 58.15 43.2 58.4 42.7 58.4H37.35C36.8 58.4 36.45 58.15 36.25 57.6L28.2 36.95L26 58.75C25.95 59.3 25.7 59.6 25.25 59.6H17.5C16.95 59.6 16.7 59.3 16.75 58.75L20.55 21.25C20.6 20.7 20.85 20.45 21.2 20.45H28.3C30.15 20.45 30.9 20.9 31.5 22.45L40 44.8L48.5 22.4C49.15 20.8 49.9 20.4 51.7 20.4H58.85C59.2 20.4 59.4 20.7 59.45 21.25L63.25 58.75C63.3 59.3 63.05 59.6 62.5 59.6Z" fill="black"/>
</svg>
