<svg width="80" height="80" viewBox="0 0 80 80" fill="none" xmlns="http://www.w3.org/2000/svg">
<path d="M40 80C62.0914 80 80 62.0914 80 40C80 17.9086 62.0914 0 40 0C17.9086 0 0 17.9086 0 40C0 62.0914 17.9086 80 40 80Z" fill="#CB2027"/>
<path d="M43.229 53.5635C40.205 53.3296 38.9343 51.8301 36.5628 50.3904C35.2593 57.2292 33.6664 63.7849 28.9482 67.2096C27.4901 56.8734 31.0859 49.1098 32.7559 40.8692C29.9094 36.0776 33.0981 26.4331 39.1019 28.8096C46.4911 31.7317 32.7045 46.6263 41.9597 48.4866C51.6221 50.4289 55.5667 31.721 49.5743 25.6359C40.9166 16.8506 24.3734 25.4363 26.4077 38.0128C26.9032 41.0874 30.0805 42.0208 27.6769 46.2634C22.1359 45.0362 20.483 40.666 20.6955 34.8398C21.0385 25.3029 29.2648 18.6253 37.5161 17.7012C47.9514 16.5333 57.7457 21.5331 59.0976 31.3488C60.6185 42.4272 54.3866 54.4248 43.229 53.5635Z" fill="#F1F2F2"/>
</svg>
