<svg width="200" height="80" viewBox="0 0 200 80" fill="none" xmlns="http://www.w3.org/2000/svg">
<path fill-rule="evenodd" clip-rule="evenodd" d="M166.575 38.7305C166.792 38.6893 166.916 38.9341 166.822 39.2202L166.02 40.2847C169.048 38.9341 173.219 37.6646 175.752 40.6959C179.551 38.1158 182.642 37.8297 185.329 38.7704C186.379 39.344 185.546 40.612 184.804 40.5722C184.062 40.5722 183.63 40.491 183.073 40.5722C181.375 40.7358 180.323 41.0632 178.532 42.0878C177.299 42.8372 176.187 43.8944 175.257 45.2016C174.207 46.9208 174.7 48.028 176.524 47.8643C178.161 47.7405 179.705 46.9621 181.406 45.694L187.398 39.5503C188.048 38.8942 188.881 38.9355 189.282 39.1817C189.716 39.3852 190.551 40.4938 190.642 40.6148C190.705 40.6987 190.952 41.3932 190.612 41.7618C189.9 42.3766 189.747 41.517 189.005 42.0094C187.121 43.6447 185.639 45.0393 184.617 46.3074C183.907 47.2908 184.493 48.3979 185.977 48.4777C187.276 48.4777 188.573 48.0692 189.747 47.537C190.272 47.2894 190.675 47.3733 191.107 47.7405C191.231 47.9881 191.168 48.1518 191.077 48.3966C190.613 49.0925 187.554 50.5669 185.608 50.7305C182.827 51.139 181.561 49.9108 181.253 48.3553C178.225 50.4018 176.401 50.9341 173.929 50.7704C169.882 50.7305 168.802 46.5123 172.819 42.7837C171.736 41.9241 170.346 41.4758 168.802 41.6793C166.113 41.7605 163.116 44.177 159.532 48.1504C158.359 49.5422 157.307 50.6054 155.639 50.7691H153.57L154.651 49.5409C152.766 50.3606 150.543 51.0152 147.669 51.4237C140.839 52.3672 136.701 49.1296 142.262 42.6214C140.963 41.7591 139.542 41.4318 137.844 41.6779C135.186 41.799 132.097 44.2567 128.544 48.2301C127.338 49.4171 126.195 50.7691 124.558 50.7691H122.519C124.494 48.3539 126.473 45.6087 129.038 42.7425C127.832 41.799 126.565 41.4744 124.898 41.6793C122.332 41.7192 117.884 45.6087 115.475 48.0266C113.032 50.4018 113.249 50.6054 111.86 50.7691H109.791L110.903 49.622C109.574 50.113 108.615 50.6054 107.01 50.7691C102.653 51.3838 102.313 48.6813 102.313 48.6813C101.201 49.4171 99.5633 50.113 97.6479 50.604C94.1876 51.4237 92.3957 50.3166 91.9329 48.5974C85.5996 50.8076 79.76 51.8322 73.5501 51.2188C66.4749 50.604 64.8998 43.9693 70.3979 37.4171C75.5578 31.6433 83.7454 28.2448 95.579 28.2022C96.5668 28.2434 97.1229 28.7757 97.4633 29.5129C97.649 30.0039 97.4944 30.2913 97.2474 30.3326C85.0756 31.0285 77.2574 34.3459 72.8093 40.1197C70.3066 43.4797 70.9551 46.5096 74.9405 47.4503C80.8111 48.3938 86.496 47.2867 92.0875 45.6073C92.8906 43.6007 95.1775 41.5542 97.2163 40.3658C101.201 38.2354 104.415 37.6619 106.794 38.7677C107.874 39.5049 106.641 40.6932 105.835 40.5694C105.465 40.4883 105.033 40.5694 104.539 40.5694C102.747 40.6093 101.201 41.2254 99.9047 41.964C98.5755 42.7397 97.4321 43.9679 96.5668 45.1989C95.7326 46.8782 96.1652 47.7777 97.8648 47.8616C99.5021 47.8616 101.14 47.1656 102.748 45.6912L108.896 39.3013C109.421 38.8502 110.163 38.9327 110.502 39.0551C110.935 39.3412 111.614 40.2022 111.831 40.4057C112.047 40.6932 112.232 41.3492 111.767 41.7976C110.965 42.2088 111.182 41.5528 110.317 42.0039C108.308 43.7231 106.794 45.2786 105.805 46.632C105.064 48.0637 105.527 48.5547 106.979 48.4722C109.636 48.2687 111.399 47.4916 113.375 45.8095C115.476 44.0504 117.515 40.9366 119.8 38.7264H122.674C122.891 38.6852 123.045 38.93 122.921 39.216L122.243 40.1595C126.691 37.9466 129.782 38.3152 131.479 39.9945C131.974 39.5035 132.315 39.1349 132.715 38.7264H135.556C135.773 38.6852 135.958 38.93 135.803 39.1762L135.061 40.2806C140.066 37.8242 143.621 38.2327 145.536 40.1169C147.545 38.93 149.521 38.2327 151.592 37.9879C155.268 37.7018 155.638 40.7716 153.724 43.3132C151.715 45.892 148.317 47.7749 144.084 48.6771C147.392 49.4528 152.117 48.2659 154.651 47.2825C155.703 46.9139 156.505 46.2991 157.617 45.3997C157.895 45.1961 161.015 41.4262 163.609 38.6838L166.575 38.7305V38.7305ZM142.94 46.7956C145.536 46.4271 148.41 45.445 150.418 43.4384C152.487 41.3919 151.003 40.7757 149.644 41.2681C146.154 42.4151 143.589 44.2169 142.94 46.7956V46.7956ZM60.4185 28L62.4885 30.9488C48.9864 51.1377 49.9451 50.4816 44.8776 50.4816L55.0117 35.5755C51.8294 36.3952 51.211 36.3952 49.4813 35.9853L51.6748 32.6267C55.5066 31.3572 58.0393 29.9241 60.4185 28V28ZM27.3912 29.3107C27.7004 29.3107 34.6823 30.5389 28.8127 38.9341C24.5493 45.2814 17.5353 49.0499 10.0906 52L8.82373 49.0499C10.3998 48.4351 16.1148 46.0997 19.4517 43.1537C18.3394 43.3572 9.31762 45.6926 9.31762 39.7937C9.47118 34.1423 20.2537 27.3852 27.3912 29.3107V29.3107ZM24.3636 32.4232C23.2513 32.4232 17.721 32.4232 14.0448 36.8463C12.1596 39.344 14.1984 40.6134 16.1148 40.4085C21.6762 39.9574 24.5493 37.4597 25.9397 35.5755C26.5871 34.9621 27.3912 32.6267 24.3636 32.4232V32.4232ZM45.496 28.2036L47.566 31.1523C34.065 51.5475 35.0227 50.8928 29.9551 50.6879L40.0892 35.7804C36.9069 36.805 36.2885 36.6001 34.5578 36.1903L36.7523 32.833C40.5831 31.5622 42.9311 30.334 45.496 28.2036Z" fill="black"/>
</svg>
