<svg width="24" height="24" viewBox="0 0 24 24" fill="none" xmlns="http://www.w3.org/2000/svg">
<path d="M23.03 0.969668C22.9268 0.866357 22.7957 0.795427 22.6527 0.765583C22.5098 0.73574 22.3612 0.748281 22.2253 0.801668L1.2253 9.05167C1.09596 9.10247 0.983285 9.18821 0.899832 9.29932C0.81638 9.41042 0.765435 9.54253 0.752679 9.68089C0.739923 9.81926 0.765859 9.95846 0.827592 10.0829C0.889326 10.2074 0.984431 10.3123 1.1023 10.3859L7.1023 14.1359C7.21119 14.2041 7.33576 14.2431 7.46407 14.2492C7.59237 14.2554 7.72011 14.2285 7.83505 14.1712L11.8228 12.1769L9.82855 16.1647C9.77118 16.2796 9.7443 16.4073 9.75047 16.5356C9.75664 16.664 9.79566 16.7885 9.8638 16.8974L13.6138 22.8974C13.6812 23.0053 13.775 23.0942 13.8862 23.1559C13.9975 23.2176 14.1226 23.2499 14.2498 23.2499H14.3188C14.4572 23.2371 14.5894 23.1861 14.7005 23.1025C14.8116 23.0189 14.8973 22.9061 14.948 22.7767L23.198 1.77667C23.2519 1.64045 23.2647 1.49143 23.2349 1.34802C23.205 1.20461 23.1338 1.07308 23.03 0.969668V0.969668Z" fill="black" fill-opacity="0.6"/>
</svg>
