<svg width="80" height="80" viewBox="0 0 80 80" fill="none" xmlns="http://www.w3.org/2000/svg">
<path d="M0.00453649 63.3048C7.24728 67.5458 15.8388 70 25.0485 70C50.922 70 71.8959 50.6339 71.8959 26.7487C71.8959 26.1523 71.8823 25.5604 71.8575 24.9702C72.7933 24.2903 78.5813 20.0072 80 17.2538C80 17.2538 75.2997 19.0572 70.6995 19.4821C70.6905 19.4821 70.6792 19.4841 70.6702 19.4841C70.6702 19.4841 70.6792 19.4799 70.695 19.4695C71.1189 19.208 77.0449 15.4837 77.8472 11.0461C77.8472 11.0461 74.5227 12.6844 69.8678 14.1177C69.0972 14.354 68.2905 14.5864 67.4588 14.8018C64.4583 11.8453 60.1934 10 55.4592 10C46.3784 10 39.0201 16.7915 39.0201 25.1688C39.0201 26.351 39.1674 27.5016 39.4461 28.6064C38.1771 28.5583 18.8529 27.558 5.70656 12.8599C5.70656 12.8599 -2.15038 22.7626 10.3887 32.9456C10.3887 32.9456 6.57698 32.8054 3.28849 30.9914C3.28849 30.9914 2.08065 42.9883 16.2808 46.0557C16.2808 46.0557 13.4866 47.0328 9.02896 46.3361C9.02896 46.3361 11.5218 56.0296 24.138 56.9355C24.138 56.9355 14.1617 65.256 0 63.3037L0.00453649 63.3048Z" fill="#50ABF1"/>
</svg>
