<svg width="330" height="89" viewBox="0 0 330 89" fill="none" xmlns="http://www.w3.org/2000/svg">
<rect width="330" height="89" fill="#181818"/>
<path d="M24.0018 54.5988C26.8989 56.4365 30.3355 57.5 34.0194 57.5C44.3688 57.5 52.7584 49.108 52.7584 38.7578C52.7584 38.4993 52.7529 38.2428 52.743 37.9871C53.1173 37.6924 55.4325 35.8365 56 34.6433C56 34.6433 54.1199 35.4248 52.2798 35.6089C52.2762 35.6089 52.2717 35.6098 52.2681 35.6098C52.2681 35.6098 52.2717 35.6079 52.278 35.6035C52.4475 35.4902 54.8179 33.8763 55.1389 31.9533C55.1389 31.9533 53.8091 32.6632 51.9471 33.2843C51.6389 33.3867 51.3162 33.4874 50.9835 33.5808C49.7833 32.2996 48.0773 31.5 46.1837 31.5C42.5514 31.5 39.608 34.443 39.608 38.0732C39.608 38.5854 39.667 39.084 39.7784 39.5628C39.2709 39.5419 31.5411 39.1085 26.2826 32.7393C26.2826 32.7393 23.1398 37.0305 28.1555 41.4431C28.1555 41.4431 26.6308 41.3823 25.3154 40.5963C25.3154 40.5963 24.8323 45.7949 30.5123 47.1241C30.5123 47.1241 29.3946 47.5475 27.6116 47.2457C27.6116 47.2457 28.6087 51.4462 33.6552 51.8387C33.6552 51.8387 29.6647 55.4443 24 54.5983L24.0018 54.5988Z" fill="#50ABF1"/>
<path d="M82.6609 41.2216H80.0018C79.8995 40.6534 79.7092 40.1534 79.4308 39.7216C79.1523 39.2898 78.8114 38.9233 78.408 38.6222C78.0046 38.321 77.5529 38.0937 77.0529 37.9403C76.5586 37.7869 76.033 37.7102 75.4762 37.7102C74.4705 37.7102 73.57 37.9631 72.7745 38.4688C71.9847 38.9744 71.3597 39.7159 70.8995 40.6932C70.445 41.6705 70.2177 42.8636 70.2177 44.2727C70.2177 45.6932 70.445 46.892 70.8995 47.8693C71.3597 48.8466 71.9876 49.5852 72.783 50.0852C73.5785 50.5852 74.4734 50.8352 75.4677 50.8352C76.0188 50.8352 76.5415 50.7614 77.0359 50.6136C77.5359 50.4602 77.9876 50.2358 78.391 49.9403C78.7944 49.6449 79.1353 49.2841 79.4137 48.858C79.6978 48.4261 79.8938 47.9318 80.0018 47.375L82.6609 47.3835C82.5188 48.2415 82.2433 49.0312 81.8342 49.7528C81.4308 50.4688 80.9109 51.0881 80.2745 51.6108C79.6438 52.1278 78.9222 52.5284 78.1097 52.8125C77.2972 53.0966 76.4109 53.2386 75.4506 53.2386C73.9393 53.2386 72.5927 52.8807 71.4109 52.1648C70.229 51.4432 69.2972 50.4119 68.6154 49.071C67.9393 47.7301 67.6012 46.1307 67.6012 44.2727C67.6012 42.4091 67.9421 40.8097 68.6239 39.4744C69.3058 38.1335 70.2376 37.1051 71.4194 36.3892C72.6012 35.6676 73.945 35.3068 75.4506 35.3068C76.3768 35.3068 77.2404 35.4403 78.0415 35.7074C78.8484 35.9687 79.5728 36.3551 80.2148 36.8665C80.8569 37.3722 81.3881 37.9915 81.8086 38.7244C82.229 39.4517 82.5131 40.2841 82.6609 41.2216ZM85.6076 53V39.9091H88.0707V41.9886H88.207C88.4457 41.2841 88.8661 40.7301 89.4684 40.3267C90.0763 39.9176 90.7638 39.7131 91.5309 39.7131C91.69 39.7131 91.8775 39.7187 92.0934 39.7301C92.315 39.7415 92.4883 39.7557 92.6133 39.7727V42.2102C92.511 42.1818 92.3292 42.1506 92.0678 42.1165C91.8065 42.0767 91.5451 42.0568 91.2837 42.0568C90.6815 42.0568 90.1445 42.1847 89.6729 42.4403C89.207 42.6903 88.8377 43.0398 88.565 43.4886C88.2923 43.9318 88.1559 44.4375 88.1559 45.0057V53H85.6076ZM96.8278 57.9091C96.4471 57.9091 96.1005 57.8778 95.788 57.8153C95.4755 57.7585 95.2425 57.696 95.0891 57.6278L95.7028 55.5398C96.1687 55.6648 96.5835 55.7188 96.9471 55.7017C97.3107 55.6847 97.6317 55.5483 97.9102 55.2926C98.1942 55.0369 98.4442 54.6193 98.6602 54.0398L98.9755 53.1705L94.1857 39.9091H96.913L100.228 50.0682H100.365L103.68 39.9091H106.416L101.021 54.7472C100.771 55.429 100.453 56.0057 100.066 56.4773C99.68 56.9545 99.2198 57.3125 98.6857 57.5511C98.1516 57.7898 97.5323 57.9091 96.8278 57.9091ZM108.811 57.9091V39.9091H111.299V42.0312H111.512C111.66 41.7585 111.873 41.4432 112.152 41.0852C112.43 40.7273 112.816 40.4148 113.311 40.1477C113.805 39.875 114.458 39.7386 115.271 39.7386C116.328 39.7386 117.271 40.0057 118.1 40.5398C118.93 41.0739 119.581 41.8437 120.052 42.8494C120.529 43.8551 120.768 45.0653 120.768 46.4801C120.768 47.8949 120.532 49.108 120.061 50.1193C119.589 51.125 118.941 51.9006 118.118 52.446C117.294 52.9858 116.353 53.2557 115.297 53.2557C114.501 53.2557 113.85 53.1222 113.345 52.8551C112.845 52.5881 112.453 52.2756 112.169 51.9176C111.885 51.5597 111.666 51.2415 111.512 50.9631H111.359V57.9091H108.811ZM111.308 46.4545C111.308 47.375 111.441 48.1818 111.708 48.875C111.975 49.5682 112.362 50.1108 112.868 50.5028C113.373 50.8892 113.993 51.0824 114.725 51.0824C115.487 51.0824 116.123 50.8807 116.635 50.4773C117.146 50.0682 117.532 49.5142 117.794 48.8153C118.061 48.1165 118.194 47.3295 118.194 46.4545C118.194 45.5909 118.064 44.8153 117.802 44.1278C117.547 43.4403 117.16 42.8977 116.643 42.5C116.132 42.1023 115.493 41.9034 114.725 41.9034C113.987 41.9034 113.362 42.0937 112.85 42.4744C112.345 42.8551 111.961 43.3864 111.7 44.0682C111.439 44.75 111.308 45.5455 111.308 46.4545ZM129.734 39.9091V41.9545H122.583V39.9091H129.734ZM124.501 36.7727H127.049V49.1562C127.049 49.6506 127.123 50.0227 127.271 50.2727C127.419 50.517 127.609 50.6847 127.842 50.7756C128.081 50.8608 128.339 50.9034 128.618 50.9034C128.822 50.9034 129.001 50.8892 129.154 50.8608C129.308 50.8324 129.427 50.8097 129.512 50.7926L129.973 52.8977C129.825 52.9545 129.615 53.0114 129.342 53.0682C129.069 53.1307 128.728 53.1648 128.319 53.1705C127.649 53.1818 127.024 53.0625 126.444 52.8125C125.865 52.5625 125.396 52.1761 125.038 51.6534C124.68 51.1307 124.501 50.4744 124.501 49.6847V36.7727ZM137.926 53.2642C136.699 53.2642 135.628 52.983 134.713 52.4205C133.799 51.858 133.088 51.071 132.583 50.0597C132.077 49.0483 131.824 47.8665 131.824 46.5142C131.824 45.1562 132.077 43.9687 132.583 42.9517C133.088 41.9347 133.799 41.1449 134.713 40.5824C135.628 40.0199 136.699 39.7386 137.926 39.7386C139.154 39.7386 140.225 40.0199 141.14 40.5824C142.054 41.1449 142.765 41.9347 143.27 42.9517C143.776 43.9687 144.029 45.1562 144.029 46.5142C144.029 47.8665 143.776 49.0483 143.27 50.0597C142.765 51.071 142.054 51.858 141.14 52.4205C140.225 52.983 139.154 53.2642 137.926 53.2642ZM137.935 51.125C138.73 51.125 139.39 50.9148 139.912 50.4943C140.435 50.0739 140.821 49.5142 141.071 48.8153C141.327 48.1165 141.455 47.3466 141.455 46.5057C141.455 45.6705 141.327 44.9034 141.071 44.2045C140.821 43.5 140.435 42.9347 139.912 42.5085C139.39 42.0824 138.73 41.8693 137.935 41.8693C137.134 41.8693 136.469 42.0824 135.941 42.5085C135.418 42.9347 135.029 43.5 134.773 44.2045C134.523 44.9034 134.398 45.6705 134.398 46.5057C134.398 47.3466 134.523 48.1165 134.773 48.8153C135.029 49.5142 135.418 50.0739 135.941 50.4943C136.469 50.9148 137.134 51.125 137.935 51.125ZM146.873 57.9091V39.9091H149.362V42.0312H149.575C149.723 41.7585 149.936 41.4432 150.214 41.0852C150.493 40.7273 150.879 40.4148 151.373 40.1477C151.868 39.875 152.521 39.7386 153.333 39.7386C154.39 39.7386 155.333 40.0057 156.163 40.5398C156.993 41.0739 157.643 41.8437 158.115 42.8494C158.592 43.8551 158.831 45.0653 158.831 46.4801C158.831 47.8949 158.595 49.108 158.123 50.1193C157.652 51.125 157.004 51.9006 156.18 52.446C155.356 52.9858 154.416 53.2557 153.359 53.2557C152.564 53.2557 151.913 53.1222 151.407 52.8551C150.907 52.5881 150.515 52.2756 150.231 51.9176C149.947 51.5597 149.728 51.2415 149.575 50.9631H149.422V57.9091H146.873ZM149.37 46.4545C149.37 47.375 149.504 48.1818 149.771 48.875C150.038 49.5682 150.424 50.1108 150.93 50.5028C151.436 50.8892 152.055 51.0824 152.788 51.0824C153.549 51.0824 154.186 50.8807 154.697 50.4773C155.208 50.0682 155.595 49.5142 155.856 48.8153C156.123 48.1165 156.257 47.3295 156.257 46.4545C156.257 45.5909 156.126 44.8153 155.865 44.1278C155.609 43.4403 155.223 42.8977 154.706 42.5C154.194 42.1023 153.555 41.9034 152.788 41.9034C152.049 41.9034 151.424 42.0937 150.913 42.4744C150.407 42.8551 150.024 43.3864 149.762 44.0682C149.501 44.75 149.37 45.5455 149.37 46.4545ZM169.978 47.571V39.9091H172.535V53H170.029V50.733H169.893C169.592 51.4318 169.109 52.0142 168.444 52.4801C167.785 52.9403 166.964 53.1705 165.981 53.1705C165.14 53.1705 164.396 52.9858 163.748 52.6165C163.106 52.2415 162.6 51.6875 162.231 50.9545C161.868 50.2216 161.686 49.3153 161.686 48.2358V39.9091H164.234V47.929C164.234 48.821 164.481 49.5312 164.975 50.0597C165.47 50.5881 166.112 50.8523 166.902 50.8523C167.379 50.8523 167.853 50.733 168.325 50.4943C168.802 50.2557 169.197 49.8949 169.51 49.4119C169.828 48.929 169.984 48.3153 169.978 47.571ZM178.507 45.2273V53H175.959V39.9091H178.405V42.0398H178.567C178.868 41.3466 179.34 40.7898 179.982 40.3693C180.63 39.9489 181.445 39.7386 182.428 39.7386C183.32 39.7386 184.101 39.9261 184.772 40.3011C185.442 40.6705 185.962 41.2216 186.331 41.9545C186.701 42.6875 186.885 43.5937 186.885 44.6733V53H184.337V44.9801C184.337 44.0312 184.09 43.2898 183.596 42.7557C183.101 42.2159 182.422 41.946 181.559 41.946C180.968 41.946 180.442 42.0739 179.982 42.3295C179.527 42.5852 179.167 42.9602 178.9 43.4545C178.638 43.9432 178.507 44.5341 178.507 45.2273ZM192.647 48.5597L192.63 45.4489H193.073L198.289 39.9091H201.34L195.391 46.2159H194.99L192.647 48.5597ZM190.303 53V35.5455H192.851V53H190.303ZM198.57 53L193.882 46.7784L195.638 44.9972L201.698 53H198.57ZM217.727 43.1648V45.3807H209.988V43.1648H217.727ZM237.199 40.1307C237.108 39.3239 236.733 38.6989 236.074 38.2557C235.415 37.8068 234.586 37.5824 233.586 37.5824C232.87 37.5824 232.25 37.696 231.728 37.9233C231.205 38.1449 230.799 38.4517 230.509 38.8438C230.225 39.2301 230.083 39.6705 230.083 40.1648C230.083 40.5795 230.179 40.9375 230.373 41.2386C230.571 41.5398 230.83 41.7926 231.148 41.9972C231.472 42.196 231.819 42.3636 232.188 42.5C232.557 42.6307 232.912 42.7386 233.253 42.8239L234.958 43.267C235.515 43.4034 236.086 43.5881 236.671 43.821C237.256 44.054 237.799 44.3608 238.299 44.7415C238.799 45.1222 239.202 45.5938 239.509 46.1562C239.821 46.7188 239.978 47.392 239.978 48.1761C239.978 49.1648 239.722 50.0426 239.211 50.8097C238.705 51.5767 237.969 52.1818 237.003 52.625C236.043 53.0682 234.881 53.2898 233.517 53.2898C232.211 53.2898 231.08 53.0824 230.125 52.6676C229.171 52.2528 228.424 51.6648 227.884 50.9034C227.344 50.1364 227.046 49.2273 226.989 48.1761H229.631C229.682 48.8068 229.887 49.3324 230.245 49.7528C230.608 50.1676 231.071 50.4773 231.634 50.6818C232.202 50.8807 232.824 50.9801 233.5 50.9801C234.245 50.9801 234.907 50.8636 235.486 50.6307C236.071 50.392 236.532 50.0625 236.867 49.642C237.202 49.2159 237.37 48.7187 237.37 48.1506C237.37 47.6335 237.222 47.2102 236.926 46.8807C236.637 46.5511 236.242 46.2784 235.742 46.0625C235.248 45.8466 234.688 45.6562 234.063 45.4915L232 44.929C230.603 44.5483 229.495 43.9886 228.676 43.25C227.864 42.5114 227.458 41.5341 227.458 40.3182C227.458 39.3125 227.73 38.4347 228.276 37.6847C228.821 36.9347 229.56 36.3523 230.492 35.9375C231.424 35.517 232.475 35.3068 233.645 35.3068C234.827 35.3068 235.87 35.5142 236.773 35.929C237.682 36.3438 238.398 36.9148 238.921 37.642C239.444 38.3636 239.716 39.1932 239.739 40.1307H237.199ZM248.562 53.2642C247.272 53.2642 246.162 52.9886 245.23 52.4375C244.304 51.8807 243.588 51.0994 243.082 50.0938C242.582 49.0824 242.332 47.8977 242.332 46.5398C242.332 45.1989 242.582 44.017 243.082 42.9943C243.588 41.9716 244.292 41.1733 245.196 40.5994C246.105 40.0256 247.167 39.7386 248.383 39.7386C249.122 39.7386 249.838 39.8608 250.531 40.1051C251.224 40.3494 251.846 40.733 252.397 41.2557C252.949 41.7784 253.383 42.4574 253.701 43.2926C254.02 44.1222 254.179 45.1307 254.179 46.3182V47.2216H243.772V45.3125H251.681C251.681 44.642 251.545 44.0483 251.272 43.5312C251 43.0085 250.616 42.5966 250.122 42.2955C249.633 41.9943 249.059 41.8438 248.4 41.8438C247.684 41.8438 247.059 42.0199 246.525 42.3722C245.997 42.7187 245.588 43.1733 245.298 43.7358C245.014 44.2926 244.872 44.8977 244.872 45.5511V47.0426C244.872 47.9176 245.025 48.6619 245.332 49.2756C245.645 49.8892 246.079 50.358 246.636 50.6818C247.193 51 247.843 51.1591 248.588 51.1591C249.071 51.1591 249.511 51.0909 249.909 50.9545C250.306 50.8125 250.65 50.6023 250.94 50.3239C251.23 50.0455 251.451 49.7017 251.605 49.2926L254.017 49.7273C253.824 50.4375 253.477 51.0597 252.977 51.5938C252.483 52.1222 251.86 52.5341 251.11 52.8295C250.366 53.1193 249.517 53.2642 248.562 53.2642ZM260.816 53.2898C259.986 53.2898 259.236 53.1364 258.566 52.8295C257.895 52.517 257.364 52.0653 256.972 51.4744C256.586 50.8835 256.392 50.1591 256.392 49.3011C256.392 48.5625 256.534 47.9545 256.819 47.4773C257.103 47 257.486 46.6222 257.969 46.3438C258.452 46.0653 258.992 45.8551 259.588 45.7131C260.185 45.571 260.793 45.4631 261.412 45.3892C262.196 45.2983 262.833 45.2244 263.321 45.1676C263.81 45.1051 264.165 45.0057 264.387 44.8693C264.608 44.733 264.719 44.5114 264.719 44.2045V44.1449C264.719 43.4006 264.509 42.8239 264.088 42.4148C263.674 42.0057 263.054 41.8011 262.23 41.8011C261.373 41.8011 260.696 41.9915 260.202 42.3722C259.713 42.7472 259.375 43.1648 259.188 43.625L256.793 43.0795C257.077 42.2841 257.492 41.642 258.037 41.1534C258.588 40.6591 259.222 40.3011 259.938 40.0795C260.654 39.8523 261.407 39.7386 262.196 39.7386C262.719 39.7386 263.273 39.8011 263.858 39.9261C264.449 40.0455 265 40.267 265.512 40.5909C266.029 40.9148 266.452 41.3778 266.782 41.9801C267.111 42.5767 267.276 43.3523 267.276 44.3068V53H264.787V51.2102H264.685C264.52 51.5398 264.273 51.8636 263.944 52.1818C263.614 52.5 263.191 52.7642 262.674 52.9744C262.157 53.1847 261.537 53.2898 260.816 53.2898ZM261.37 51.2443C262.074 51.2443 262.676 51.1051 263.176 50.8267C263.682 50.5483 264.066 50.1847 264.327 49.7358C264.594 49.2812 264.728 48.7955 264.728 48.2784V46.5909C264.637 46.6818 264.461 46.767 264.199 46.8466C263.944 46.9205 263.651 46.9858 263.321 47.0426C262.992 47.0937 262.671 47.142 262.358 47.1875C262.046 47.2273 261.784 47.2614 261.574 47.2898C261.08 47.3523 260.628 47.4574 260.219 47.6051C259.816 47.7528 259.492 47.9659 259.248 48.2443C259.009 48.517 258.89 48.8807 258.89 49.3352C258.89 49.9659 259.123 50.4432 259.588 50.767C260.054 51.0852 260.648 51.2443 261.37 51.2443ZM270.67 53V39.9091H273.133V41.9886H273.27C273.508 41.2841 273.929 40.7301 274.531 40.3267C275.139 39.9176 275.826 39.7131 276.593 39.7131C276.752 39.7131 276.94 39.7187 277.156 39.7301C277.377 39.7415 277.551 39.7557 277.676 39.7727V42.2102C277.574 42.1818 277.392 42.1506 277.13 42.1165C276.869 42.0767 276.608 42.0568 276.346 42.0568C275.744 42.0568 275.207 42.1847 274.735 42.4403C274.27 42.6903 273.9 43.0398 273.627 43.4886C273.355 43.9318 273.218 44.4375 273.218 45.0057V53H270.67ZM284.926 53.2642C283.659 53.2642 282.569 52.9773 281.654 52.4034C280.745 51.8239 280.046 51.0256 279.557 50.0085C279.069 48.9915 278.824 47.8267 278.824 46.5142C278.824 45.1847 279.074 44.0114 279.574 42.9943C280.074 41.9716 280.779 41.1733 281.688 40.5994C282.597 40.0256 283.668 39.7386 284.901 39.7386C285.895 39.7386 286.782 39.9233 287.56 40.2926C288.338 40.6562 288.966 41.1676 289.444 41.8267C289.926 42.4858 290.213 43.2557 290.304 44.1364H287.824C287.688 43.5227 287.375 42.9943 286.887 42.5511C286.404 42.108 285.756 41.8864 284.944 41.8864C284.233 41.8864 283.611 42.0739 283.077 42.4489C282.549 42.8182 282.137 43.3466 281.841 44.0341C281.546 44.7159 281.398 45.5227 281.398 46.4545C281.398 47.4091 281.543 48.233 281.833 48.9261C282.123 49.6193 282.532 50.1562 283.06 50.5369C283.594 50.9176 284.222 51.108 284.944 51.108C285.426 51.108 285.864 51.0199 286.256 50.8438C286.654 50.6619 286.986 50.4034 287.253 50.0682C287.526 49.733 287.716 49.3295 287.824 48.858H290.304C290.213 49.7045 289.938 50.4602 289.478 51.125C289.017 51.7898 288.401 52.3125 287.628 52.6932C286.861 53.0739 285.961 53.2642 284.926 53.2642ZM295.578 45.2273V53H293.029V35.5455H295.544V42.0398H295.706C296.012 41.3352 296.481 40.7756 297.112 40.3608C297.743 39.946 298.566 39.7386 299.583 39.7386C300.481 39.7386 301.265 39.9233 301.936 40.2926C302.612 40.6619 303.135 41.2131 303.504 41.946C303.879 42.6733 304.066 43.5824 304.066 44.6733V53H301.518V44.9801C301.518 44.0199 301.271 43.2756 300.777 42.7472C300.282 42.2131 299.595 41.946 298.714 41.946C298.112 41.946 297.572 42.0739 297.095 42.3295C296.623 42.5852 296.251 42.9602 295.978 43.4545C295.711 43.9432 295.578 44.5341 295.578 45.2273Z" fill="#E8E8E8"/>
<rect width="53" height="89" transform="translate(277)" fill="url(#paint0_linear_14_151)"/>
<path d="M305.026 44.4991L309.68 39.8554C309.884 39.6516 309.998 39.3751 309.998 39.0869C309.998 38.7986 309.884 38.5222 309.68 38.3183C309.476 38.1145 309.2 38 308.911 38C308.623 38 308.347 38.1145 308.143 38.3183L303.5 42.9728L298.857 38.3183C298.653 38.1145 298.377 38 298.089 38C297.8 38 297.524 38.1145 297.32 38.3183C297.116 38.5222 297.002 38.7986 297.002 39.0869C297.002 39.3751 297.116 39.6516 297.32 39.8554L301.974 44.4991L297.32 49.1427C297.219 49.2434 297.138 49.3631 297.083 49.495C297.028 49.6269 297 49.7684 297 49.9113C297 50.0542 297.028 50.1957 297.083 50.3276C297.138 50.4595 297.219 50.5792 297.32 50.6798C297.421 50.7813 297.54 50.8618 297.672 50.9168C297.804 50.9717 297.946 51 298.089 51C298.231 51 298.373 50.9717 298.505 50.9168C298.637 50.8618 298.756 50.7813 298.857 50.6798L303.5 46.0253L308.143 50.6798C308.244 50.7813 308.363 50.8618 308.495 50.9168C308.627 50.9717 308.769 51 308.911 51C309.054 51 309.196 50.9717 309.328 50.9168C309.46 50.8618 309.579 50.7813 309.68 50.6798C309.781 50.5792 309.862 50.4595 309.917 50.3276C309.972 50.1957 310 50.0542 310 49.9113C310 49.7684 309.972 49.6269 309.917 49.495C309.862 49.3631 309.781 49.2434 309.68 49.1427L305.026 44.4991Z" fill="white"/>
<defs>
<linearGradient id="paint0_linear_14_151" x1="-54.3475" y1="41.582" x2="39.762" y2="42.4117" gradientUnits="userSpaceOnUse">
<stop stop-color="#D9D9D9" stop-opacity="0"/>
<stop offset="0.572917" stop-color="#181818" stop-opacity="0.5"/>
<stop offset="0.891621" stop-color="#181818"/>
</linearGradient>
</defs>
</svg>
