<svg width="24" height="24" viewBox="0 0 24 24" fill="none" xmlns="http://www.w3.org/2000/svg">
<path d="M20.94 10.3017C20.6152 10.1129 20.3234 9.87238 20.076 9.58968C20.101 9.19609 20.1948 8.80992 20.353 8.44868C20.644 7.62768 20.973 6.69768 20.445 5.97468C19.917 5.25168 18.92 5.27468 18.045 5.29468C17.6584 5.33446 17.2678 5.30808 16.89 5.21668C16.6887 4.88918 16.545 4.52966 16.465 4.15368C16.217 3.30868 15.934 2.35368 15.065 2.06768C14.227 1.79768 13.451 2.39168 12.765 2.91368C12.469 3.18399 12.126 3.39785 11.753 3.54468C11.3761 3.39905 11.0293 3.18514 10.73 2.91368C10.046 2.39468 9.273 1.79468 8.431 2.06868C7.564 2.35068 7.281 3.30868 7.031 4.15368C6.95113 4.52844 6.80881 4.88711 6.61 5.21468C6.23152 5.30584 5.84043 5.33288 5.453 5.29468C4.575 5.27068 3.586 5.24468 3.053 5.97468C2.52 6.70468 2.853 7.62768 3.145 8.44768C3.30544 8.80839 3.40058 9.19471 3.426 9.58868C3.17908 9.87175 2.88757 10.1126 2.563 10.3017C1.831 10.8017 1 11.3707 1 12.2947C1 13.2187 1.831 13.7857 2.563 14.2877C2.8875 14.4765 3.179 14.717 3.426 14.9997C3.40326 15.3935 3.31082 15.7802 3.153 16.1417C2.863 16.9617 2.535 17.8917 3.062 18.6147C3.589 19.3377 4.583 19.3147 5.462 19.2947C5.84897 19.2549 6.23989 19.2812 6.618 19.3727C6.81838 19.7005 6.96174 20.0599 7.042 20.4357C7.29 21.2807 7.573 22.2357 8.442 22.5217C8.58132 22.5664 8.72669 22.5893 8.873 22.5897C9.57621 22.4888 10.2298 22.169 10.741 21.6757C11.037 21.4054 11.38 21.1915 11.753 21.0447C12.1299 21.1903 12.4767 21.4042 12.776 21.6757C13.461 22.1987 14.237 22.7957 15.076 22.5207C15.943 22.2387 16.226 21.2807 16.476 20.4367C16.5561 20.0612 16.6995 19.7021 16.9 19.3747C17.277 19.2829 17.6669 19.2558 18.053 19.2947C18.931 19.3157 19.92 19.3447 20.453 18.6147C20.986 17.8847 20.653 16.9617 20.361 16.1407C20.2017 15.7803 20.1066 15.3948 20.08 15.0017C20.3271 14.7183 20.6189 14.4775 20.944 14.2887C21.676 13.7887 22.507 13.2187 22.507 12.2947C22.507 11.3707 21.673 10.8027 20.94 10.3017V10.3017Z" fill="#49ADF4"/>
<path d="M10.7528 15.0447C10.6543 15.0449 10.5567 15.0255 10.4657 14.9878C10.3748 14.95 10.2922 14.8946 10.2228 14.8247L8.22278 12.8247C8.0903 12.6825 8.01817 12.4945 8.0216 12.3002C8.02503 12.1059 8.10374 11.9205 8.24116 11.7831C8.37857 11.6456 8.56395 11.5669 8.75825 11.5635C8.95256 11.5601 9.1406 11.6322 9.28278 11.7647L10.8228 13.3047L14.3028 10.6947C14.4619 10.5753 14.6619 10.5241 14.8588 10.5522C15.0558 10.5803 15.2334 10.6856 15.3528 10.8447C15.4721 11.0038 15.5234 11.2038 15.4952 11.4007C15.4671 11.5977 15.3619 11.7753 15.2028 11.8947L11.2028 14.8947C11.0729 14.992 10.915 15.0446 10.7528 15.0447V15.0447Z" fill="white"/>
</svg>
