<svg width="80" height="80" viewBox="0 0 80 80" fill="none" xmlns="http://www.w3.org/2000/svg">
<path fill-rule="evenodd" clip-rule="evenodd" d="M60 80H20C14.6957 79.9998 9.6088 77.8925 5.85812 74.1419C2.10744 70.3912 0.000232046 65.3042 0 60L0 20C0.000232046 14.6957 2.10744 9.6088 5.85812 5.85812C9.6088 2.10744 14.6957 0.000232046 20 0L60 0C65.3043 0 70.3914 2.10714 74.1421 5.85786C77.8929 9.60859 80 14.6957 80 20V60C80 65.3043 77.8929 70.3914 74.1421 74.1421C70.3914 77.8929 65.3043 80 60 80Z" fill="#4682C3"/>
<path fill-rule="evenodd" clip-rule="evenodd" d="M37.5 22.5H60C62.8841 22.4998 65.658 21.3921 67.7488 19.4055C69.8396 17.419 71.0877 14.7053 71.2353 11.825C71.3829 8.94469 70.4187 6.1177 68.5419 3.92783C66.6651 1.73796 64.019 0.352477 61.15 0.0575C60.7675 0.03625 60.3887 0 60 0H20C14.6957 0.000232046 9.6088 2.10744 5.85812 5.85812C2.10744 9.6088 0.000232046 14.6957 0 20L0 60C0.000232055 50.0544 3.95119 40.5163 10.9838 33.4837C18.0163 26.4512 27.5545 22.5002 37.5 22.5Z" fill="#5F9BDC"/>
<path fill-rule="evenodd" clip-rule="evenodd" d="M60 40C56.0444 40 52.1776 41.173 48.8886 43.3706C45.5996 45.5682 43.0362 48.6918 41.5224 52.3463C40.0087 56.0008 39.6126 60.0222 40.3843 63.9018C41.156 67.7814 43.0608 71.3451 45.8579 74.1421C48.6549 76.9392 52.2186 78.844 56.0982 79.6157C59.9778 80.3874 63.9992 79.9913 67.6537 78.4776C71.3082 76.9638 74.4318 74.4004 76.6294 71.1114C78.827 67.8224 80 63.9556 80 60V20C80 25.3043 77.8929 30.3914 74.1421 34.1421C70.3914 37.8929 65.3043 40 60 40Z" fill="#2D69AA"/>
<path fill-rule="evenodd" clip-rule="evenodd" d="M66.3975 27.255C66.8025 25.9825 66.3975 25.0587 64.6037 25.0587H58.6475C58.0925 25.0279 57.542 25.1734 57.0747 25.4745C56.6075 25.7756 56.2475 26.2168 56.0463 26.735C54.1835 31.1273 51.7104 35.2349 48.7 38.9362C47.3125 40.3237 46.6775 40.7875 45.925 40.7875C45.52 40.7875 45 40.3237 45 39.0512V27.1975C45 25.6937 44.5363 25 43.265 25H34.1325C33.9423 24.9908 33.7522 25.0196 33.5732 25.0846C33.3942 25.1496 33.23 25.2496 33.09 25.3787C32.9501 25.5079 32.8372 25.6636 32.758 25.8367C32.6788 26.0099 32.6349 26.1971 32.6287 26.3875C32.6287 27.8337 34.7687 28.18 35 32.2287V41.0175C35 42.9262 34.6525 43.2737 33.9013 43.2737C31.8763 43.2737 26.1475 35.8137 23.1975 27.3125C22.6188 25.635 22.0425 25 20.5375 25H14.5238C12.7888 25 12.5 25.8087 12.5 26.6762C12.5 30.4962 23.2975 57.4412 40.7212 57.4412C44.5363 57.4412 45 56.5749 45 55.1287V49.7512C45 48.0149 45.3475 47.7262 46.5612 47.7262C49.6625 47.7262 55.275 54.6537 56.725 56.1049C57.0597 56.5274 57.483 56.8713 57.9651 57.1123C58.4471 57.3534 58.9762 57.4857 59.515 57.5H65.4712C67.2062 57.5 67.81 56.4462 67.3488 54.77C66.2763 51.32 58.815 44.2225 58.4175 43.6787C57.5488 42.5212 57.78 42.06 58.4175 41.0175C58.3588 41.0175 65.645 30.725 66.3975 27.255Z" fill="white"/>
</svg>
